<svg viewBox="0 0 226 160.58" xmlns="http://www.w3.org/2000/svg" xmlns:xlink="http://www.w3.org/1999/xlink"><style>:root>svg{display:none}:root>svg:target{display:block}</style><svg viewBox="0 0 214.87 160.58" id="badge_expert" xmlns="http://www.w3.org/2000/svg"><rect fill="#fff" height="156.58" rx="14.28" width="210.87" x="2" y="2"/><rect fill="none" height="156.58" rx="14.28" stroke="#1d1d1b" stroke-miterlimit="10" stroke-width="4" width="210.87" x="2" y="2"/><rect fill="none" height="156.58" rx="14.28" stroke="#1d1d1b" stroke-linejoin="round" stroke-width="3" width="210.87" x="2" y="2"/><path d="M51.66 35.15l-1.56 1.54-15 14.92a.92.92 0 01-1.4-.06l-2.91-2.87a.94.94 0 010-1.35l12.2-12.19z" fill="#03707d"/><path d="M51.66 35.15l6.67 6.67a1.08 1.08 0 01-.06 1.44l-2.9 2.9a.93.93 0 01-1.31-.06l-11-11z" fill="#05979a"/><path d="M29.43 38.23l1.57-1.5 14.61-14.66a.94.94 0 011.4.06L49.92 25a.93.93 0 010 1.35L38 38.25z" fill="#118d38"/><path d="M29.42 38.25l-6.67-6.67a1.08 1.08 0 01.06-1.44l2.9-2.9a.93.93 0 011.3.05l11 11z" fill="#5eb130"/><path d="M1.6 65.42h211.93v37.4H1.6z" fill="#1d1d1b"/><text fill="#fff" font-family="Geograph-Bold, Geograph" font-size="18.26" font-weight="700" transform="translate(70.51 90.27)">EXPE<tspan letter-spacing="-.05em" x="45.71" y="0">R</tspan><tspan x="57.01" y="0">T</tspan></text><g fill="#1d1d1b"><path d="M66.23 113.31l5.02 10.17 11.23 1.64-8.13 7.91 1.92 11.19-10.04-5.28-10.04 5.28 1.92-11.19-8.13-7.91 11.23-1.64zM105.86 113.18l5.02 10.17 11.23 1.63-8.12 7.92 1.91 11.18-10.04-5.28-10.04 5.28 1.92-11.18-8.12-7.92 11.22-1.63zM61.21 35.21a9.85 9.85 0 119.88 9.72 9.91 9.91 0 01-9.88-9.72zm4 0c0 3.48 2.46 6.33 5.87 6.33a6.12 6.12 0 005.86-6.33c0-3.32-2.79-6.26-5.86-6.26a6.24 6.24 0 00-5.89 6.26zM157.76 42.88a7.65 7.65 0 01-5 2c-3.7 0-6.88-2.55-6.88-6.17s3.23-5.92 7-5.92a7.16 7.16 0 014.87 1.8v-1.54a4.27 4.27 0 00-4.53-4.05 10 10 0 00-5.22 1.46v-3.38a11.87 11.87 0 015.81-1.49c4.38 0 7.84 3.06 7.84 7.12v11.74h-3.87zm-4.33-7c-2.28 0-4 1.36-4 3s1.86 3 4.15 3 4.19-1.52 4.19-3.15-2.02-2.81-4.34-2.81zM170.37 41.37c1.31 0 2.86-.3 2.86-2 0-1.08-.64-1.45-1.66-1.89l-3.43-1.43c-2-.94-3.56-2.15-3.56-4.79 0-3 3-5.68 6.57-5.68a8.52 8.52 0 015.27 1.58v4a8.35 8.35 0 00-5.21-2.16c-1.78 0-2.56.94-2.56 1.92s.55 1.42 2.07 2.14l3.28 1.46c2.17 1 3.46 2.28 3.46 4.63 0 3.3-3.55 5.77-7.07 5.77a10.71 10.71 0 01-6-1.76v-4.09a9.05 9.05 0 005.98 2.3zM187.63 41.65a4.6 4.6 0 002.82-1v3.55a7.66 7.66 0 01-3.7.85c-3.56 0-6.21-2.62-6.21-6.5v-9.16l-3.06-.06v-3.18h3.12V21.5l3.9-1.24v5.86h5.28v3.23h-5.22v8.77c-.02 2.21 1.11 3.53 3.07 3.53zM103.12 35.26c0 5.32-3.86 9.69-9 9.69a7.8 7.8 0 01-6.58-3.24v10.34h-3.89V26h4v2.87A7.21 7.21 0 0194 25.56c5.2 0 9.12 4.33 9.12 9.7zm-15.67 0a6.08 6.08 0 005.68 6.29 6.3 6.3 0 006.09-6.23 6.13 6.13 0 00-5.84-6.33 6.05 6.05 0 00-5.93 6.22zM113.42 25.6a7.19 7.19 0 016.32 3.3v-2.87h4v26h-3.87V41.75a7.8 7.8 0 01-6.51 3.25c-5.19 0-9-4.36-9-9.69s3.88-9.71 9.06-9.71zm.63 3.37a6.13 6.13 0 00-5.84 6.33 6.3 6.3 0 006.1 6.23 6.06 6.06 0 005.69-6.29 6.05 6.05 0 00-5.95-6.24zM139.63 26.06h4v18.5h-3.95v-2.47a6.36 6.36 0 01-5.37 2.83c-4.37 0-6.69-3.26-6.69-7.2V26.07h3.89v10.82c0 2.75 1.62 4.57 3.95 4.57a4.46 4.46 0 004.24-4.75zM146.83 113.18l5.02 10.17 11.23 1.63-8.12 7.92 1.91 11.18-10.04-5.28-10.04 5.28 1.92-11.18-8.12-7.92 11.22-1.63zM26.79 113.31l5.02 10.17 11.23 1.64-8.13 7.91 1.92 11.19-10.04-5.28-10.04 5.28 1.92-11.19-8.13-7.91 11.23-1.64zM188.81 113.18l5.02 10.17 11.22 1.63-8.12 7.92 1.92 11.18-10.04-5.28-10.04 5.28 1.92-11.18-8.13-7.92 11.23-1.63z"/></g></svg><svg viewBox="0 0 200 140" id="certification" xmlns="http://www.w3.org/2000/svg"><g fill="none" fill-rule="evenodd"><path d="M99.012 89.279c22.066 0 39.954-17.444 39.954-38.96-5.542-.244-24.704-.244-41.474-.088-16.001.149-31.814 0-38.435.087 0 21.517 17.889 38.96 39.955 38.96z" fill="#e9ac30"/><path d="M141.11 15.982c3.087 0 5.447 2.357 5.447 5.441v46.986c0 3.084-2.36 5.441-5.447 5.441h-4.355c0 .543 0 .904.181 1.45.182.907-.362 1.814-1.27 2.176a7.193 7.193 0 00-3.995 3.991v12.519c0 .726-.362 1.272-.909 1.633-.18.181-.546.181-.908.181-.181 0-.546 0-.727-.18l-6.54-3.265-6.539 3.264a1.656 1.656 0 01-1.817 0c-.546-.364-.908-1.088-.908-1.633l-.003-12.522c-.546-1.815-1.998-3.445-3.996-3.991-.908-.18-1.451-1.088-1.27-1.996.181-.361.181-.904.181-1.45h-36.14c-3.087 0-5.447-2.356-5.447-5.44V21.423c0-3.084 2.36-5.441 5.447-5.441zM127.846 82.92c-1.451 0-3.087.545-4.176 1.633-.362.365-.724.546-1.27.546-.544 0-.909-.184-1.271-.546-1.09-1.088-2.54-1.633-4.177-1.633v8.163l4.723-2.358c.181-.18.365-.18.728-.18h.127c.28.002.438.022.597.18l4.722 2.358zm-5.26-26.667c-1.816 1.272-3.995 1.814-6.173 1.633-1.093 1.996-2.544 3.63-4.542 4.537.18 2.176-.365 4.353-1.636 6.167 1.09 1.815 1.814 3.991 1.633 6.167 1.997 1.092 3.633 2.541 4.541 4.537h.547c1.813 0 3.81.546 5.447 1.634 1.816-1.272 3.995-1.815 6.174-1.634 1.092-1.996 2.544-3.63 4.541-4.537-.184-2.176.363-4.352 1.82-6.167-1.273-1.814-1.816-3.99-1.635-6.167-1.998-1.091-3.634-2.541-4.542-4.537-2.179.181-4.358-.364-6.174-1.633zm-.002 5.277c3.956 0 7.192 3.239 7.192 7.192 0 3.956-3.236 7.192-7.192 7.192s-7.192-3.236-7.192-7.192 3.236-7.192 7.192-7.192zm0 3.594a3.609 3.609 0 00-3.597 3.598 3.609 3.609 0 003.597 3.597 3.609 3.609 0 003.598-3.597 3.609 3.609 0 00-3.598-3.598zm18.526-45.516H72.098c-1.09 0-1.817.727-1.817 1.815l-.003 47.348c0 1.088.728 1.814 1.817 1.814h34.688c0-.183-.18-.364-.362-.545-.727-.723-.727-1.63-.18-2.357a6.91 6.91 0 001.635-5.806c0-.542 0-.907.18-1.269a1.855 1.855 0 011.09-.907c1.998-.726 3.63-2.176 4.177-4.172.362-.907 1.27-1.45 2.179-1.269 1.997.546 4.18 0 5.63-1.45.544-.545 1.633-.545 2.36 0 1.455 1.27 3.634 1.812 5.631 1.45.909-.18 1.817.362 2.18 1.27.727 1.995 2.178 3.625 4.176 4.171.908.362 1.451 1.27 1.27 2.176-.546 1.996 0 4.175 1.452 5.625.546.543.546 1.63 0 2.357-.181.184-.181.365-.363.546h3.269c1.089 0 1.816-.727 1.816-1.815l.003-47.167c0-1.088-.727-1.815-1.816-1.815zM78.69 58.972c2.022-1.917 5.699-1.917 7.72 0l1.838 1.744c.367.35.733.524 1.286.524h4.043c1.102 0 1.838.698 1.838 1.743 0 1.045-.736 1.743-1.838 1.743h-4.04c-1.472 0-2.757-.524-3.86-1.57l-1.838-1.743a1.844 1.844 0 00-2.574 0l-1.103 1.046a1.844 1.844 0 01-2.574 0c-.736-.698-.736-1.743 0-2.441zm20.474-10.227c1.106 0 1.845.796 1.845 1.997 0 1.198-.739 1.998-1.845 1.998H78.881c-1.106 0-1.845-.8-1.845-1.998s.739-1.997 1.845-1.997zm12.872 0c1.057 0 1.758.796 1.758 1.997 0 1.198-.704 1.998-1.758 1.998h-5.273c-1.055 0-1.759-.8-1.759-1.998s.704-1.997 1.759-1.997zm-5.67-7.192c1.1 0 1.835.8 1.835 1.997 0 1.198-.735 1.998-1.834 1.998H78.87c-1.1 0-1.834-.8-1.834-1.998 0-1.197.734-1.997 1.834-1.997zm18.415 0c1.079 0 1.799.8 1.799 1.997 0 1.198-.72 1.998-1.799 1.998h-10.787c-1.078 0-1.798-.8-1.798-1.998 0-1.197.72-1.997 1.798-1.997zm-13.584-9.59c1.078 0 1.798.8 1.798 1.998s-.72 1.998-1.798 1.998H100.41c-1.079 0-1.799-.8-1.799-1.998 0-1.197.72-1.997 1.799-1.997zm5.565-7.191c1.095 0 1.827.8 1.827 1.998s-.732 1.997-1.827 1.997H94.845c-.914 0-1.827-.8-1.827-1.997 0-1.198.731-1.998 1.827-1.998z" fill="#fff"/><circle cx="188.589" cy="17.74" fill="#1c9b9c" r="7.192"/><circle cx="151.192" cy="129.932" fill="#7db952" r="10.068"/><circle cx="11.192" cy="50.342" fill="#d25148" r="7.192"/></g></svg><svg viewBox="0 0 98 79" id="code" xmlns="http://www.w3.org/2000/svg"><g fill="none" fill-rule="evenodd"><path d="M46.46 33.46c25.405 0 46 20.083 46 44.856-6.38.28-28.442.28-47.75.1-18.423-.171-36.628 0-44.25-.1 0-24.773 20.595-44.856 46-44.856z" fill="#e9ac30"/><path d="M95 .6a2.798 2.798 0 012.776 2.442l.019.186.005.172v59.4a2.8 2.8 0 01-.82 1.981 2.802 2.802 0 01-1.622.795l-.186.019L95 65.6H23a2.802 2.802 0 01-1.98-.819 2.802 2.802 0 01-.796-1.622l-.019-.187-.005-.172V3.4A2.801 2.801 0 0122.695.617l.152-.013L23 .6zm-2.8 20H25.8V60h66.4zm-29.002 5.72c1.227.386 1.967 1.612 1.76 2.906l-.028.15-.045.17-6.857 22.056c-.388 1.252-1.81 2.078-3.179 1.708-1.268-.347-2.024-1.614-1.804-2.93l.029-.147.044-.163 6.856-22.055a2.564 2.564 0 013.224-1.696zm11.622 6.133l.113.108 5.336 5.465c.937.96.973 2.485.109 3.489l-.108.118-5.332 5.47c-.923.946-2.711.913-3.602 0a2.592 2.592 0 01-.108-3.49l.108-.117 3.569-3.66-3.578-3.667a2.599 2.599 0 01-.203-3.366l.099-.123.108-.119a2.51 2.51 0 013.49-.108zm-28.264 0l.113.108.105.116c.774.902.832 2.218.125 3.218l-.101.135-.129.144-3.575 3.663 3.57 3.659c.9.922.968 2.364.207 3.366l-.099.123-.108.118c-.795.815-2.313.929-3.333.225l-.125-.092-.144-.134-5.331-5.469c-.875-.897-.97-2.296-.223-3.34l.098-.128.125-.14 5.336-5.464a2.51 2.51 0 013.49-.108zM92.2 6.199H25.8V15h66.4zm-16 4.401c0 3.735-5.6 3.735-5.6 0s5.6-3.733 5.6 0zm7.2 0c0 3.735-5.6 3.735-5.6 0s5.6-3.733 5.6 0zm7.2 0c0 3.735-5.6 3.735-5.6 0s5.6-3.733 5.6 0z" fill="#254356" fill-rule="nonzero"/></g></svg><svg viewBox="0 0 101 80" id="contenus" xmlns="http://www.w3.org/2000/svg"><g fill="none" fill-rule="evenodd"><path d="M54.46 79.54c25.405 0 46-20.083 46-44.856-6.38-.28-28.442-.28-47.75-.1-18.423.171-36.628 0-44.25.1 0 24.773 20.595 44.856 46 44.856z" fill="#e9ac30"/><path d="M59.211 2.837C60.537.282 63.597-.706 66.08.53l10.756 5.354c1.241.66 2.153 1.647 2.566 2.967.414 1.315.333 2.718-.333 3.95l-17.54 34.843c-.333.66-.747 1.152-1.325 1.648l-11.5 9.556A5.156 5.156 0 0145.48 60c-.828 0-1.574-.248-2.318-.576a5.104 5.104 0 01-2.812-4.778l.828-14.99c0-.657.168-1.316.498-1.976zm-29.32 46.818c1.774 0 3.21 1.39 3.212 3.104 0 1.716-1.434 3.103-3.209 3.103H3.21C1.435 55.862 0 54.475 0 52.76s1.435-3.104 3.21-3.104zm17.243-5.138l-.33 7.742 5.957-4.942zm12.828-28.993L48.543 38.176l8.604 4.282 11.335-22.651zM31.974 34.138c1.769 0 3.198 1.387 3.198 3.103s-1.43 3.104-3.198 3.104H3.198C1.43 40.345 0 38.957 0 37.24s1.43-3.103 3.198-3.103zm6.247-15.517c1.746 0 3.158 1.387 3.158 3.103 0 1.713-1.412 3.1-3.158 3.104H3.158C1.412 24.828 0 23.44 0 21.724c0-1.716 1.412-3.103 3.158-3.103zM64.344 6.708L62.69 9.922l8.604 4.28 1.655-3.212zm-18.84-3.605a3.107 3.107 0 013.117 3.104 3.107 3.107 0 01-3.117 3.103H3.116C1.393 9.31 0 7.84 0 6.207a3.107 3.107 0 013.116-3.104z" fill="#fff"/></g></svg><svg viewBox="0 0 101 80" id="contenus-blue" xmlns="http://www.w3.org/2000/svg"><g fill="none" fill-rule="evenodd"><path d="M54.46 79.54c25.405 0 46-20.083 46-44.856-6.38-.28-28.442-.28-47.75-.1-18.423.171-36.628 0-44.25.1 0 24.773 20.595 44.856 46 44.856z" fill="#e9ac30"/><path d="M59.211 2.837C60.537.282 63.597-.706 66.08.53l10.756 5.354c1.241.66 2.153 1.647 2.566 2.967.414 1.315.333 2.718-.333 3.95l-17.54 34.843c-.333.66-.747 1.152-1.325 1.648l-11.5 9.556A5.156 5.156 0 0145.48 60c-.828 0-1.574-.248-2.318-.576a5.104 5.104 0 01-2.812-4.778l.828-14.99c0-.657.168-1.316.498-1.976zm-29.32 46.818c1.774 0 3.21 1.39 3.212 3.104 0 1.716-1.434 3.103-3.209 3.103H3.21C1.435 55.862 0 54.475 0 52.76s1.435-3.104 3.21-3.104zm17.243-5.138l-.33 7.742 5.957-4.942zm12.828-28.993L48.543 38.176l8.604 4.282 11.335-22.651zM31.974 34.138c1.769 0 3.198 1.387 3.198 3.103s-1.43 3.104-3.198 3.104H3.198C1.43 40.345 0 38.957 0 37.24s1.43-3.103 3.198-3.103zm6.247-15.517c1.746 0 3.158 1.387 3.158 3.103 0 1.713-1.412 3.1-3.158 3.104H3.158C1.412 24.828 0 23.44 0 21.724c0-1.716 1.412-3.103 3.158-3.103zM64.344 6.708L62.69 9.922l8.604 4.28 1.655-3.212zm-18.84-3.605a3.107 3.107 0 013.117 3.104 3.107 3.107 0 01-3.117 3.103H3.116C1.393 9.31 0 7.84 0 6.207a3.107 3.107 0 013.116-3.104z" fill="#254356"/></g></svg><svg viewBox="0 0 101 111" id="donnees-personnelles" xmlns="http://www.w3.org/2000/svg"><g fill="none" fill-rule="evenodd"><path d="M46.46 110.54c25.405 0 46-20.083 46-44.856-6.38-.28-28.442-.28-47.75-.1-18.423.171-36.628 0-44.25.1 0 24.773 20.595 44.856 46 44.856z" fill="#e9ac30"/><path d="M53.771 36.709c12.268 0 22.247 10.268 22.247 22.89a2.416 2.416 0 01-4.83 0c0-9.959-7.812-18.06-17.417-18.06s-17.417 8.101-17.417 18.06c0 10.199 11.39 21.81 11.505 21.926a2.413 2.413 0 01-1.716 4.115 2.411 2.411 0 01-1.716-.715c-.528-.531-12.903-13.163-12.903-25.325 0-12.623 9.979-22.891 22.247-22.891zm2.09-9.38c16.435 1.098 29.312 15.723 29.312 33.295v.55c0 6.543-5.191 11.866-11.57 11.866s-11.566-5.323-11.566-11.866V59.6c0-2.376-.908-4.585-2.557-6.228-1.545-1.539-3.57-2.382-5.706-2.382h-.045c-2.72.012-4.553 1.426-5.609 2.608-1.884 2.102-2.817 5.161-2.499 8.175 1.066 10.04 12.603 19.04 15.778 19.04a2.413 2.413 0 110 4.827c-5.809 0-19.275-11.051-20.579-23.358-.46-4.35.924-8.8 3.7-11.904 2.415-2.699 5.677-4.196 9.184-4.215h.067c3.42 0 6.653 1.343 9.113 3.787 2.57 2.553 3.983 5.982 3.983 9.653v1.575c0 3.88 3.02 7.035 6.736 7.035s6.74-3.155 6.74-7.035v-.551c0-15.037-10.894-27.547-24.8-28.474-7.25-.493-14.207 2.012-19.575 7.029-5.57 5.21-8.765 12.654-8.765 20.421 0 6.389 2.164 12.613 6.092 17.527a2.415 2.415 0 01-3.774 3.013c-4.607-5.767-7.148-13.063-7.148-20.543 0-9.1 3.754-17.83 10.294-23.947 6.353-5.944 14.593-8.904 23.194-8.324zM53.58 55.61a2.416 2.416 0 012.415 2.415c0 9.557 8.034 18.061 14.365 18.061a2.416 2.416 0 010 4.83c-8.643 0-19.195-10.561-19.195-22.89a2.416 2.416 0 012.415-2.416zm.19-37.8c13.312 0 25.799 6.76 33.401 18.081a2.413 2.413 0 01-2.006 3.758 2.406 2.406 0 01-2.006-1.07c-6.704-9.981-17.69-15.942-29.389-15.942s-22.685 5.96-29.389 15.943a2.416 2.416 0 11-4.012-2.692C27.973 24.569 40.46 17.81 53.771 17.81zm0-9.45c10.658 0 20.933 4.015 28.935 11.309a2.417 2.417 0 01.158 3.413 2.412 2.412 0 01-1.787.786 2.39 2.39 0 01-1.626-.632C72.344 16.758 63.225 13.19 53.77 13.19s-18.573 3.568-25.68 10.05a2.42 2.42 0 01-3.413-.158 2.417 2.417 0 01.158-3.413C32.838 12.375 43.113 8.36 53.771 8.36zM98.126 1C99.16 1 100 1.84 100 2.874v16.492a1.874 1.874 0 11-3.748 0L96.25 4.748H81.634a1.874 1.874 0 110-3.748zM9.874 1C8.84 1 8 1.84 8 2.874l.001.024L8 19.366a1.874 1.874 0 103.748 0l.001-14.618h14.617a1.874 1.874 0 000-3.748zm0 92A1.874 1.874 0 018 91.126l.001-.024L8 74.634a1.874 1.874 0 113.748 0l.001 14.618h14.617a1.874 1.874 0 110 3.748zm88.252 0c1.035 0 1.874-.84 1.874-1.874V74.634a1.874 1.874 0 10-3.748 0l-.001 14.618H81.634a1.874 1.874 0 100 3.748z" fill="#fff" stroke="#fff"/></g></svg><svg viewBox="0 0 101 111" id="donnees-personnelles-blue" xmlns="http://www.w3.org/2000/svg"><g fill="none" fill-rule="evenodd"><path d="M46.46 110.54c25.405 0 46-20.083 46-44.856-6.38-.28-28.442-.28-47.75-.1-18.423.171-36.628 0-44.25.1 0 24.773 20.595 44.856 46 44.856z" fill="#e9ac30"/><path d="M53.771 36.709c12.268 0 22.247 10.268 22.247 22.89a2.416 2.416 0 01-4.83 0c0-9.959-7.812-18.06-17.417-18.06s-17.417 8.101-17.417 18.06c0 10.199 11.39 21.81 11.505 21.926a2.413 2.413 0 01-1.716 4.115 2.411 2.411 0 01-1.716-.715c-.528-.531-12.903-13.163-12.903-25.325 0-12.623 9.979-22.891 22.247-22.891zm2.09-9.38c16.435 1.098 29.312 15.723 29.312 33.295v.55c0 6.543-5.191 11.866-11.57 11.866s-11.566-5.323-11.566-11.866V59.6c0-2.376-.908-4.585-2.557-6.228-1.545-1.539-3.57-2.382-5.706-2.382h-.045c-2.72.012-4.553 1.426-5.609 2.608-1.884 2.102-2.817 5.161-2.499 8.175 1.066 10.04 12.603 19.04 15.778 19.04a2.413 2.413 0 110 4.827c-5.809 0-19.275-11.051-20.579-23.358-.46-4.35.924-8.8 3.7-11.904 2.415-2.699 5.677-4.196 9.184-4.215h.067c3.42 0 6.653 1.343 9.113 3.787 2.57 2.553 3.983 5.982 3.983 9.653v1.575c0 3.88 3.02 7.035 6.736 7.035s6.74-3.155 6.74-7.035v-.551c0-15.037-10.894-27.547-24.8-28.474-7.25-.493-14.207 2.012-19.575 7.029-5.57 5.21-8.765 12.654-8.765 20.421 0 6.389 2.164 12.613 6.092 17.527a2.415 2.415 0 01-3.774 3.013c-4.607-5.767-7.148-13.063-7.148-20.543 0-9.1 3.754-17.83 10.294-23.947 6.353-5.944 14.593-8.904 23.194-8.324zM53.58 55.61a2.416 2.416 0 012.415 2.415c0 9.557 8.034 18.061 14.365 18.061a2.416 2.416 0 010 4.83c-8.643 0-19.195-10.561-19.195-22.89a2.416 2.416 0 012.415-2.416zm.19-37.8c13.312 0 25.799 6.76 33.401 18.081a2.413 2.413 0 01-2.006 3.758 2.406 2.406 0 01-2.006-1.07c-6.704-9.981-17.69-15.942-29.389-15.942s-22.685 5.96-29.389 15.943a2.416 2.416 0 11-4.012-2.692C27.973 24.569 40.46 17.81 53.771 17.81zm0-9.45c10.658 0 20.933 4.015 28.935 11.309a2.417 2.417 0 01.158 3.413 2.412 2.412 0 01-1.787.786 2.39 2.39 0 01-1.626-.632C72.344 16.758 63.225 13.19 53.77 13.19s-18.573 3.568-25.68 10.05a2.42 2.42 0 01-3.413-.158 2.417 2.417 0 01.158-3.413C32.838 12.375 43.113 8.36 53.771 8.36zM98.126 1C99.16 1 100 1.84 100 2.874v16.492a1.874 1.874 0 11-3.748 0L96.25 4.748H81.634a1.874 1.874 0 110-3.748zM9.874 1C8.84 1 8 1.84 8 2.874l.001.024L8 19.366a1.874 1.874 0 103.748 0l.001-14.618h14.617a1.874 1.874 0 000-3.748zm0 92A1.874 1.874 0 018 91.126l.001-.024L8 74.634a1.874 1.874 0 113.748 0l.001 14.618h14.617a1.874 1.874 0 110 3.748zm88.252 0c1.035 0 1.874-.84 1.874-1.874V74.634a1.874 1.874 0 10-3.748 0l-.001 14.618H81.634a1.874 1.874 0 100 3.748z" fill="#254356" stroke="#254356"/></g></svg><svg viewBox="0 0 226 131" id="download-list" xmlns="http://www.w3.org/2000/svg"><g fill="none" fill-rule="evenodd"><circle cx="210.5" cy="12.5" fill="#1c9b9c" r="5.5"/><circle cx="218.5" cy="117.5" fill="#7db952" r="7.5"/><circle cx="10" cy="35" fill="#d25148" r="10"/><path d="M124.5 70.5c-27.614 0-50 21.829-50 48.756 6.935.304 30.916.304 51.902.11 20.025-.187 39.813 0 48.098-.11 0-26.927-22.386-48.756-50-48.756z" fill="#e9ac30"/><g fill="#000"><path d="M113 16.284a49.738 49.738 0 00-35.157 14.56 49.725 49.725 0 00.001 70.313A49.734 49.734 0 00113 115.716a49.738 49.738 0 0035.157-14.56 49.729 49.729 0 00-.001-70.313A49.734 49.734 0 00113 16.284zm0 92.33a42.602 42.602 0 01-30.132-12.482C74.874 88.142 70.386 77.302 70.386 66s4.488-22.14 12.482-30.132c7.99-7.994 18.83-12.482 30.132-12.482s22.14 4.488 30.132 12.482c7.994 7.99 12.482 18.83 12.482 30.132s-4.488 22.14-12.482 30.132A42.597 42.597 0 01113 108.614z"/><path d="M100.216 72.392a3.554 3.554 0 01-.71-4.972 3.554 3.554 0 014.971-.71l4.972 3.196V44.693a3.55 3.55 0 117.102 0v25.213l4.972-3.196a3.554 3.554 0 014.971.71 3.554 3.554 0 01-.71 4.972l-10.653 7.102h-4.262zm34.09 14.915a3.197 3.197 0 01-3.55 3.55H95.244a3.55 3.55 0 01-3.55-3.55 3.55 3.55 0 013.55-3.551h35.512a3.197 3.197 0 013.55 3.55z"/></g></g></svg><svg viewBox="0 0 95 77" id="e-commerce" xmlns="http://www.w3.org/2000/svg"><g fill="none" fill-rule="evenodd"><path d="M46.46 24.46c25.405 0 46 20.083 46 44.856-6.38.28-28.442.28-47.75.1-18.423-.171-36.628 0-44.25-.1 0-24.773 20.595-44.856 46-44.856z" fill="#e9ac30"/><path d="M48.416 59.505a8.732 8.732 0 012.83 14.238 8.732 8.732 0 01-14.238-2.83 8.731 8.731 0 0111.408-11.408zm28.374 0a8.732 8.732 0 012.83 14.238 8.732 8.732 0 01-14.238-2.83A8.731 8.731 0 0176.79 59.505zm-31.716 5.883a2.184 2.184 0 00-1.543 3.726c.622.623 1.564.81 2.378.473a2.184 2.184 0 00.708-3.56 2.182 2.182 0 00-1.543-.639zm28.373 0a2.184 2.184 0 00-1.542 3.726 2.183 2.183 0 101.735-3.717zM92.123.86a3.26 3.26 0 011.931 1.842 3.262 3.262 0 01-.08 2.664L79.9 43.26a3.276 3.276 0 01-3.178 2.486H39.617a2.181 2.181 0 00-2.182 2.182c0 1.207.976 2.183 2.182 2.183h44.744a3.275 3.275 0 010 6.548H39.617a8.73 8.73 0 01-2.384-17.131L25.333 7.55h-5.36a3.275 3.275 0 010-6.548h7.64a3.273 3.273 0 013.065 2.182l13.403 36.014h30.36l9.747-26.192H42.891a3.275 3.275 0 010-6.548h43.734l1.218-3.274a3.273 3.273 0 011.62-2.118 3.278 3.278 0 012.66-.205z" fill="#fff"/></g></svg><svg viewBox="0 0 95 77" id="e-commerce-blue" xmlns="http://www.w3.org/2000/svg"><g fill="none" fill-rule="evenodd"><path d="M46.46 24.46c25.405 0 46 20.083 46 44.856-6.38.28-28.442.28-47.75.1-18.423-.171-36.628 0-44.25-.1 0-24.773 20.595-44.856 46-44.856z" fill="#e9ac30"/><path d="M48.416 59.505a8.732 8.732 0 012.83 14.238 8.732 8.732 0 01-14.238-2.83 8.731 8.731 0 0111.408-11.408zm28.374 0a8.732 8.732 0 012.83 14.238 8.732 8.732 0 01-14.238-2.83A8.731 8.731 0 0176.79 59.505zm-31.716 5.883a2.184 2.184 0 00-1.543 3.726c.622.623 1.564.81 2.378.473a2.184 2.184 0 00.708-3.56 2.182 2.182 0 00-1.543-.639zm28.373 0a2.184 2.184 0 00-1.542 3.726 2.183 2.183 0 101.735-3.717zM92.123.86a3.26 3.26 0 011.931 1.842 3.262 3.262 0 01-.08 2.664L79.9 43.26a3.276 3.276 0 01-3.178 2.486H39.617a2.181 2.181 0 00-2.182 2.182c0 1.207.976 2.183 2.182 2.183h44.744a3.275 3.275 0 010 6.548H39.617a8.73 8.73 0 01-2.384-17.131L25.333 7.55h-5.36a3.275 3.275 0 010-6.548h7.64a3.273 3.273 0 013.065 2.182l13.403 36.014h30.36l9.747-26.192H42.891a3.275 3.275 0 010-6.548h43.734l1.218-3.274a3.273 3.273 0 011.62-2.118 3.278 3.278 0 012.66-.205z" fill="#254356"/></g></svg><svg viewBox="0 0 200 140" id="exam-center" xmlns="http://www.w3.org/2000/svg"><g fill="none" fill-rule="evenodd"><circle cx="188.589" cy="17.74" fill="#1c9b9c" r="7.192"/><path d="M58.419 46.237c0 23.095 18.257 41.818 40.778 41.818.254-5.8.254-25.857.09-43.408-.155-16.749 0-33.3-.09-40.228-22.521 0-40.778 18.722-40.778 41.818z" fill="#e9ac30"/><path d="M134.497 17.34c3.138 0 5.885 2.358 5.885 5.899V90.1c0 3.146-2.747 5.9-5.885 5.9h-51c-3.137 0-5.884-2.754-5.884-5.9V23.239c0-3.541 2.356-5.9 5.885-5.9zm-39.62 3.933h-11.38c-1.176 0-1.96.787-1.96 1.966V90.1c0 1.18.784 1.967 1.96 1.967h51c1.177 0 1.962-.788 1.962-1.967l.005-66.86c0-1.18-.785-1.967-1.961-1.967h-11.38v3.933h3.138c3.138 0 5.885 2.754 5.885 5.9v51.128c0 3.146-2.747 5.9-5.885 5.9H91.344c-3.138 0-5.884-2.754-5.884-5.9V31.497c0-3.146 2.746-5.9 5.884-5.9h3.532zm-.396 7.866h-3.138c-1.176 0-1.962.787-1.962 1.966V81.84c0 1.179.786 1.966 1.962 1.966l34.913.004c1.176 0 1.962-.787 1.962-1.966V31.105c0-1.18-.786-1.966-1.962-1.966h-3.137c0 3.145-2.747 5.899-5.885 5.899h-16.869c-3.137 0-5.884-2.362-5.884-5.9zm25.697 39.051c1.157 0 1.93.796 1.93 1.987 0 1.19-.773 1.986-1.93 1.986H97.023c-1.157 0-1.93-.795-1.93-1.986 0-1.191.773-1.987 1.93-1.987zm0-7.945c1.157 0 1.93.795 1.93 1.986 0 1.191-.773 1.987-1.93 1.987H97.023c-1.157 0-1.93-.796-1.93-1.987 0-1.19.773-1.986 1.93-1.986zm0-7.945c1.157 0 1.93.795 1.93 1.986 0 1.19-.773 1.986-1.93 1.986H97.023c-1.157 0-1.93-.795-1.93-1.986 0-1.191.773-1.986 1.93-1.986zm0-7.946c1.157 0 1.93.795 1.93 1.986 0 1.191-.773 1.987-1.93 1.987H97.023c-1.157 0-1.93-.796-1.93-1.987 0-1.19.773-1.986 1.93-1.986zm-1.374-19.54c-3.137 2.75-6.665 4.325-10.198 4.325-3.528 0-7.06-1.18-10.198-4.325v4.325c0 1.179.786 1.966 1.962 1.966h16.868c1.176 0 1.961-.787 1.961-1.966zm-1.57-3.541h-16.868c2.747 2.75 5.493 3.933 8.631 4.324 2.743 0 5.49-1.57 8.237-4.324z" fill="#fff"/><circle cx="151.192" cy="129.932" fill="#7db952" r="10.068"/><circle cx="11.192" cy="50.342" fill="#d25148" r="7.192"/></g></svg><svg viewBox="0 0 103 103" id="form" xmlns="http://www.w3.org/2000/svg"><filter id="ala"><feColorMatrix in="SourceGraphic" values="0 0 0 0 0.145098 0 0 0 0 0.262745 0 0 0 0 0.337255 0 0 0 1.000000 0"/></filter><g fill="none" fill-rule="evenodd"><path d="M46.46 102.54c25.405 0 46-20.083 46-44.856-6.38-.28-28.442-.28-47.75-.1-18.423.171-36.628 0-44.25.1 0 24.773 20.595 44.856 46 44.856z" fill="#e9ac30"/><g filter="url(#ala)" transform="translate(20)"><g fill="#000" fill-rule="nonzero"><path d="M82.205 23.885L59.109.79A2.695 2.695 0 0057.203 0H18.229c-5.466 0-9.913 4.447-9.913 9.913v72.174c0 5.466 4.447 9.913 9.913 9.913H73.08c5.466 0 9.913-4.447 9.913-9.913V25.791c0-.715-.284-1.4-.79-1.906zM59.898 9.202l13.894 13.894H64.42a4.527 4.527 0 01-4.522-4.522zM73.081 86.61H18.23a4.527 4.527 0 01-4.522-4.522V9.913a4.527 4.527 0 014.522-4.522h36.278v13.183c0 5.465 4.447 9.912 9.913 9.912h13.183v53.601a4.527 4.527 0 01-4.522 4.522z"/><path d="M34.107 40.418H22.559a2.695 2.695 0 00-2.695 2.695v11.548a2.695 2.695 0 002.695 2.695h11.548a2.695 2.695 0 002.695-2.695V43.113a2.695 2.695 0 00-2.695-2.695zm-2.695 11.548h-6.158v-6.158h6.158zm3.071-34.486H22.935a2.695 2.695 0 00-2.695 2.695v11.548a2.695 2.695 0 002.695 2.696h11.548a2.695 2.695 0 002.696-2.696V20.175a2.695 2.695 0 00-2.696-2.695zm-2.695 11.548h-6.157V22.87h6.157zm2.319 34.486H22.559a2.695 2.695 0 00-2.695 2.695v11.548a2.695 2.695 0 002.695 2.695h11.548a2.695 2.695 0 002.695-2.695V66.209a2.695 2.695 0 00-2.695-2.695zM31.412 75.06h-6.158v-6.157h6.158zM42.96 43.113a2.695 2.695 0 002.695 2.695h11.548a2.695 2.695 0 000-5.39H45.655a2.695 2.695 0 00-2.695 2.695zm25.79 8.853H45.656a2.695 2.695 0 000 5.39h23.096a2.695 2.695 0 000-5.39zM45.655 68.904h11.548a2.695 2.695 0 000-5.39H45.655a2.695 2.695 0 000 5.39zm23.095 6.157H45.656a2.695 2.695 0 000 5.391h23.096a2.695 2.695 0 000-5.39z"/></g></g></g></svg><svg viewBox="0 0 103 103" id="formulaires" xmlns="http://www.w3.org/2000/svg"><g fill="none" fill-rule="evenodd"><path d="M46.46 102.54c25.405 0 46-20.083 46-44.856-6.38-.28-28.442-.28-47.75-.1-18.423.171-36.628 0-44.25.1 0 24.773 20.595 44.856 46 44.856z" fill="#e9ac30"/><g fill="#fff" fill-rule="nonzero"><path d="M102.205 23.885L79.109.79A2.695 2.695 0 0077.203 0H38.229c-5.466 0-9.913 4.447-9.913 9.913v72.174c0 5.466 4.447 9.913 9.913 9.913H93.08c5.466 0 9.913-4.447 9.913-9.913V25.791c0-.715-.284-1.4-.79-1.906zM79.898 9.202l13.894 13.894H84.42a4.527 4.527 0 01-4.522-4.522zM93.081 86.61H38.23a4.527 4.527 0 01-4.522-4.522V9.913a4.527 4.527 0 014.522-4.522h36.278v13.183c0 5.465 4.447 9.912 9.913 9.912h13.183v53.601a4.527 4.527 0 01-4.522 4.522z"/><path d="M54.107 40.418H42.559a2.695 2.695 0 00-2.695 2.695v11.548a2.695 2.695 0 002.695 2.695h11.548a2.695 2.695 0 002.695-2.695V43.113a2.695 2.695 0 00-2.695-2.695zm-2.695 11.548h-6.158v-6.158h6.158zm3.071-34.486H42.935a2.695 2.695 0 00-2.695 2.695v11.548a2.695 2.695 0 002.695 2.696h11.548a2.695 2.695 0 002.696-2.696V20.175a2.695 2.695 0 00-2.696-2.695zm-2.695 11.548h-6.157V22.87h6.157zm2.319 34.486H42.559a2.695 2.695 0 00-2.695 2.695v11.548a2.695 2.695 0 002.695 2.695h11.548a2.695 2.695 0 002.695-2.695V66.209a2.695 2.695 0 00-2.695-2.695zM51.412 75.06h-6.158v-6.157h6.158zM62.96 43.113a2.695 2.695 0 002.695 2.695h11.548a2.695 2.695 0 000-5.39H65.655a2.695 2.695 0 00-2.695 2.695zm25.79 8.853H65.656a2.695 2.695 0 000 5.39h23.096a2.695 2.695 0 000-5.39zM65.655 68.904h11.548a2.695 2.695 0 000-5.39H65.655a2.695 2.695 0 000 5.39zm23.095 6.157H65.656a2.696 2.696 0 000 5.391h23.096a2.695 2.695 0 000-5.39z"/></g></g></svg><svg viewBox="0 0 103 103" id="formulaires-blue" xmlns="http://www.w3.org/2000/svg"><filter id="ana"><feColorMatrix in="SourceGraphic" values="0 0 0 0 0.145098 0 0 0 0 0.262745 0 0 0 0 0.337255 0 0 0 1.000000 0"/></filter><g fill="none" fill-rule="evenodd"><path d="M46.46 102.54c25.405 0 46-20.083 46-44.856-6.38-.28-28.442-.28-47.75-.1-18.423.171-36.628 0-44.25.1 0 24.773 20.595 44.856 46 44.856z" fill="#e9ac30"/><g filter="url(#ana)" transform="translate(20)"><g fill="#000" fill-rule="nonzero"><path d="M82.205 23.885L59.109.79A2.695 2.695 0 0057.203 0H18.229c-5.466 0-9.913 4.447-9.913 9.913v72.174c0 5.466 4.447 9.913 9.913 9.913H73.08c5.466 0 9.913-4.447 9.913-9.913V25.791c0-.715-.284-1.4-.79-1.906zM59.898 9.202l13.894 13.894H64.42a4.527 4.527 0 01-4.522-4.522zM73.081 86.61H18.23a4.527 4.527 0 01-4.522-4.522V9.913a4.527 4.527 0 014.522-4.522h36.278v13.183c0 5.465 4.447 9.912 9.913 9.912h13.183v53.601a4.527 4.527 0 01-4.522 4.522z"/><path d="M34.107 40.418H22.559a2.695 2.695 0 00-2.695 2.695v11.548a2.695 2.695 0 002.695 2.695h11.548a2.695 2.695 0 002.695-2.695V43.113a2.695 2.695 0 00-2.695-2.695zm-2.695 11.548h-6.158v-6.158h6.158zm3.071-34.486H22.935a2.695 2.695 0 00-2.695 2.695v11.548a2.695 2.695 0 002.695 2.696h11.548a2.695 2.695 0 002.696-2.696V20.175a2.695 2.695 0 00-2.696-2.695zm-2.695 11.548h-6.157V22.87h6.157zm2.319 34.486H22.559a2.695 2.695 0 00-2.695 2.695v11.548a2.695 2.695 0 002.695 2.695h11.548a2.695 2.695 0 002.695-2.695V66.209a2.695 2.695 0 00-2.695-2.695zM31.412 75.06h-6.158v-6.157h6.158zM42.96 43.113a2.695 2.695 0 002.695 2.695h11.548a2.695 2.695 0 000-5.39H45.655a2.695 2.695 0 00-2.695 2.695zm25.79 8.853H45.656a2.695 2.695 0 000 5.39h23.096a2.695 2.695 0 000-5.39zM45.655 68.904h11.548a2.695 2.695 0 000-5.39H45.655a2.695 2.695 0 000 5.39zm23.095 6.157H45.656a2.695 2.695 0 000 5.391h23.096a2.695 2.695 0 000-5.39z"/></g></g></g></svg><svg viewBox="0 0 226 131" id="good-practice" xmlns="http://www.w3.org/2000/svg"><path d="M97.5 120.5c27.614 0 50-21.829 50-48.756-6.935-.304-30.916-.304-51.902-.11-20.025.187-39.813 0-48.098.11 0 26.927 22.386 48.756 50 48.756z" fill="#e9ac30"/><path d="M134.982 8.858a9.57 9.57 0 017.922 0c6.566 3.116 10.213 8.415 10.213 15.06 0 7.064-2.296 13.71-4.274 17.97h21.05c5.523 0 10.107 4.467 10.107 10.074 0 2.597-1.042 4.987-2.711 6.65 1.563 1.765 2.605 4.155 2.605 6.751 0 3.53-1.877 6.751-4.69 8.516.835 1.457 1.356 3.116 1.356 4.987 0 3.53-1.877 6.75-4.69 8.516.835 1.456 1.356 3.116 1.356 4.986 0 5.506-4.482 10.074-10.107 10.074h-23.134c-9.172 0-17.61-1.351-26.781-3.842-1.356 3.116-4.584 5.4-8.337 5.4H90.171C85.168 104 81 99.947 81 94.86V47.6c0-5.091 4.067-9.14 9.171-9.14l14.692.004a9.114 9.114 0 017.922 4.568 32.757 32.757 0 002.397-1.663c6.46-5.093 11.256-12.777 13.548-21.605l1.25-4.88c.728-2.598 2.503-4.882 5.002-6.026zm-30.119 36.458H90.167c-1.351 0-2.5 1.14-2.5 2.492l.005 47.258c0 1.347 1.144 2.491 2.5 2.491h14.695c1.351 0 2.5-1.14 2.5-2.491l-.005-47.258c0-1.347-1.143-2.492-2.499-2.492zm35.122-30.331c-.94-.414-1.775-.207-2.19 0-.42.21-1.148.625-1.355 1.663l-1.25 4.881c-2.605 10.18-8.337 19.11-15.945 25.134a32.084 32.084 0 01-5.21 3.429l.003 42.065c8.96 2.495 17.089 3.74 25.946 3.74h23.24c1.877 0 3.44-1.558 3.44-3.428s-1.563-3.428-3.44-3.428h-3.333c-1.877 0-3.334-1.453-3.334-3.323s1.457-3.323 3.334-3.323h6.667c1.877 0 3.44-1.558 3.44-3.428 0-1.87-1.563-3.429-3.44-3.429h-4.274c-1.877 0-3.334-1.452-3.334-3.323 0-1.87 1.457-3.322 3.334-3.322h7.608c1.877 0 3.44-1.558 3.44-3.429 0-1.87-1.563-3.428-3.44-3.428h-6.358c-1.876 0-3.334-1.452-3.334-3.322s1.458-3.323 3.334-3.323h6.359c1.876 0 3.44-1.558 3.44-3.429s-1.564-3.428-3.44-3.428h-26.574c-1.25 0-2.292-.726-2.919-1.765-.52-1.039-.52-2.39.005-3.221.101-.106 5.939-9.454 5.939-19.528 0-4.155-2.084-7.064-6.359-9.035zM103 88.502c0 5.997-9 5.997-9 0 0-6.003 9-6.003 9 0z" fill="#fff"/><circle cx="10" cy="35" fill="#d25148" r="10"/><circle cx="210.5" cy="12.5" fill="#1c9b9c" r="5.5"/><circle cx="218.5" cy="117.5" fill="#7db952" r="7.5"/></svg><svg viewBox="0 0 226 131" id="graduate" xmlns="http://www.w3.org/2000/svg"><g fill="none" fill-rule="evenodd"><path d="M97.5 120.5c27.614 0 50-21.829 50-48.756-6.935-.304-30.916-.304-51.902-.11-20.025.187-39.813 0-48.098.11 0 26.927 22.386 48.756 50 48.756z" fill="#e9ac30"/><circle cx="10" cy="35" fill="#d25148" r="10"/><circle cx="210.5" cy="12.5" fill="#1c9b9c" r="5.5"/><circle cx="218.5" cy="117.5" fill="#7db952" r="7.5"/><path d="M154.885 23.816l3.126 7.369a5.327 5.327 0 002.804 2.804l7.369 3.126c5.617 2.38 8.283 8.825 5.999 14.48l-2.997 7.42a5.3 5.3 0 000 3.97l2.997 7.42c2.284 5.654-.382 12.099-6 14.48l-7.368 3.126a5.327 5.327 0 00-2.804 2.804l-3.126 7.369c-2.38 5.617-8.825 8.283-14.48 5.999l-7.42-2.997a5.3 5.3 0 00-3.97 0l-7.42 2.997c-5.654 2.284-12.099-.382-14.48-6l-3.126-7.368a5.327 5.327 0 00-2.804-2.804l-7.369-3.126c-5.617-2.38-8.283-8.825-5.999-14.48l2.997-7.42a5.3 5.3 0 000-3.97l-2.997-7.42c-2.284-5.654.382-12.099 6-14.48l7.368-3.126a5.327 5.327 0 002.804-2.804l3.126-7.369c2.38-5.617 8.825-8.283 14.48-5.999l7.42 2.997a5.3 5.3 0 003.97 0l7.42-2.997c5.654-2.284 12.099.382 14.48 6zm-11.788-.266l-7.451 3.01a11.232 11.232 0 01-8.412 0l-7.451-3.01a5.32 5.32 0 00-6.893 2.853l-3.14 7.401a11.219 11.219 0 01-5.946 5.946l-7.4 3.14a5.32 5.32 0 00-2.854 6.893l3.01 7.451a11.232 11.232 0 010 8.412l-3.01 7.451a5.32 5.32 0 002.853 6.893l7.401 3.14a11.219 11.219 0 015.946 5.946l3.14 7.4a5.32 5.32 0 006.893 2.854l7.451-3.01a11.232 11.232 0 018.412 0l7.451 3.01a5.32 5.32 0 006.893-2.853l3.14-7.401a11.219 11.219 0 015.946-5.946l7.4-3.14a5.32 5.32 0 002.854-6.893l-3.01-7.451a11.232 11.232 0 010-8.412l3.01-7.451a5.32 5.32 0 00-2.853-6.893l-7.401-3.14a11.219 11.219 0 01-5.946-5.946l-3.14-7.4a5.32 5.32 0 00-6.893-2.854zM126.05 69.075l20.897-21.106a3.52 3.52 0 015.014 0 3.605 3.605 0 010 5.064l-23.404 23.638a3.52 3.52 0 01-5.014 0l-10.864-10.972a3.605 3.605 0 010-5.065 3.52 3.52 0 015.014 0z" fill="#fff"/></g></svg><svg viewBox="0 0 110 94" id="identification-et-contact" xmlns="http://www.w3.org/2000/svg"><g fill="none" fill-rule="evenodd"><path d="M46.46 93.54c25.405 0 46-20.083 46-44.856-6.38-.28-28.442-.28-47.75-.1-18.423.171-36.628 0-44.25.1 0 24.773 20.595 44.856 46 44.856z" fill="#e9ac30"/><path d="M71.625.945a3 3 0 013 3v8.5h31.625a2.874 2.874 0 012.87 2.706l.005.169v57.5a2.874 2.874 0 01-2.706 2.87l-.169.005h-80.5a2.874 2.874 0 01-2.87-2.706l-.005-.169v-57.5a2.874 2.874 0 012.706-2.87l.169-.005h31.625v-8.5a3 3 0 013-3zm-14.25 17.25h-28.75v51.75h74.75v-51.75h-28.75v1.915a2.874 2.874 0 01-2.875 2.875h-11.5a2.874 2.874 0 01-2.875-2.875zM48.06 28.2c5.833 0 10.58 4.737 10.58 10.559 0 2.7-1.028 5.242-2.803 7.172l-.226.237.106.046c5.415 2.461 9.091 7.732 9.346 13.696l.01.332.004.333a2.466 2.466 0 01-2.336 2.58l-.152.005-.156-.005c-1.34-.08-2.414-1.186-2.414-2.538 0-5.956-4.92-10.81-11-10.81s-11 4.854-11 10.81c0 1.404-1.157 2.543-2.57 2.543s-2.569-1.14-2.569-2.543c0-5.678 3.068-10.81 7.868-13.627l.29-.166.093-.051-.194-.17a10.538 10.538 0 01-3.438-7.169l-.014-.321-.005-.312c0-5.83 4.754-10.601 10.58-10.601zm46.491 26.776a2.695 2.695 0 01.17 5.385l-.17.005H71.455a2.695 2.695 0 01-.17-5.385l.17-.005zM83.003 43.428a2.695 2.695 0 01.17 5.385l-.17.006H71.455a2.695 2.695 0 01-.17-5.386l.17-.005zM48.06 33.336c-3.017 0-5.48 2.445-5.48 5.465 0 3.009 2.453 5.423 5.48 5.423 3.017 0 5.48-2.445 5.48-5.465 0-3.009-2.453-5.423-5.48-5.423zm46.491-1.456a2.695 2.695 0 01.17 5.385l-.17.006H71.455a2.695 2.695 0 01-.17-5.386l.17-.005zM68.875 6.695h-5.75v10.54h5.75z" fill="#fff"/></g></svg><svg viewBox="0 0 110 94" id="identification-et-contact-blue" xmlns="http://www.w3.org/2000/svg"><g fill="none" fill-rule="evenodd"><path d="M46.46 93.54c25.405 0 46-20.083 46-44.856-6.38-.28-28.442-.28-47.75-.1-18.423.171-36.628 0-44.25.1 0 24.773 20.595 44.856 46 44.856z" fill="#e9ac30"/><path d="M71.625.945a3 3 0 013 3v8.5h31.625a2.874 2.874 0 012.87 2.706l.005.169v57.5a2.874 2.874 0 01-2.706 2.87l-.169.005h-80.5a2.874 2.874 0 01-2.87-2.706l-.005-.169v-57.5a2.874 2.874 0 012.706-2.87l.169-.005h31.625v-8.5a3 3 0 013-3zm-14.25 17.25h-28.75v51.75h74.75v-51.75h-28.75v1.915a2.874 2.874 0 01-2.875 2.875h-11.5a2.874 2.874 0 01-2.875-2.875zM48.06 28.2c5.833 0 10.58 4.737 10.58 10.559 0 2.7-1.028 5.242-2.803 7.172l-.226.237.106.046c5.415 2.461 9.091 7.732 9.346 13.696l.01.332.004.333a2.466 2.466 0 01-2.336 2.58l-.152.005-.156-.005c-1.34-.08-2.414-1.186-2.414-2.538 0-5.956-4.92-10.81-11-10.81s-11 4.854-11 10.81c0 1.404-1.157 2.543-2.57 2.543s-2.569-1.14-2.569-2.543c0-5.678 3.068-10.81 7.868-13.627l.29-.166.093-.051-.194-.17a10.538 10.538 0 01-3.438-7.169l-.014-.321-.005-.312c0-5.83 4.754-10.601 10.58-10.601zm46.491 26.776a2.695 2.695 0 01.17 5.385l-.17.005H71.455a2.695 2.695 0 01-.17-5.385l.17-.005zM83.003 43.428a2.695 2.695 0 01.17 5.385l-.17.006H71.455a2.695 2.695 0 01-.17-5.386l.17-.005zM48.06 33.336c-3.017 0-5.48 2.445-5.48 5.465 0 3.009 2.453 5.423 5.48 5.423 3.017 0 5.48-2.445 5.48-5.465 0-3.009-2.453-5.423-5.48-5.423zm46.491-1.456a2.695 2.695 0 01.17 5.385l-.17.006H71.455a2.695 2.695 0 01-.17-5.386l.17-.005zM68.875 6.695h-5.75v10.54h5.75z" fill="#254356"/></g></svg><svg viewBox="0 0 103 103" id="images-et-medias" xmlns="http://www.w3.org/2000/svg"><g fill="none" fill-rule="evenodd"><path d="M102.54 56.46c0 25.405-20.083 46-44.856 46-.28-6.38-.28-28.442-.1-47.75.171-18.423 0-36.628.1-44.25 24.773 0 44.856 20.595 44.856 46z" fill="#e9ac30"/><path d="M77.04.68c4.473 0 8.147 3.594 8.276 8.037l.004.243v49.68c0 4.473-3.594 8.147-8.037 8.276l-.243.004h-.92v.92c0 4.392-3.464 8.013-7.795 8.266l-.242.01-.243.004h-.92v.92c0 4.392-3.464 8.013-7.795 8.266l-.242.01-.243.004H8.96c-4.473 0-8.147-3.594-8.276-8.037L.68 77.04V27.36c0-4.473 3.594-8.147 8.037-8.276l.243-.004h.92v-.92c0-4.392 3.464-8.013 7.795-8.266l.242-.01.243-.004h.92v-.92c0-4.392 3.464-8.013 7.795-8.266l.242-.01.243-.004zM9.88 24.6h-.92a2.773 2.773 0 00-2.755 2.599l-.005.161v49.68a2.773 2.773 0 002.599 2.755l.161.005h49.68a2.773 2.773 0 002.755-2.599l.005-.161v-.92H18.16c-4.473 0-8.147-3.594-8.276-8.037l-.004-.243zm9.2-9.2h-.92a2.773 2.773 0 00-2.755 2.599l-.005.161v49.68a2.773 2.773 0 002.599 2.755l.161.005h49.68a2.773 2.773 0 002.755-2.599l.005-.161v-.92H27.36c-4.473 0-8.147-3.594-8.276-8.037l-.004-.243zm36.433 18.573L34.73 61.4h42.31a2.773 2.773 0 002.755-2.599l.005-.161v-6.894zM77.04 6.2H27.36a2.773 2.773 0 00-2.755 2.598l-.005.162v49.68a2.773 2.773 0 002.599 2.755l.161.005h.465l25.203-33.024.08-.093.457-.456h.067l.103-.064.067-.033.04-.038.035-.037a.997.997 0 01.275-.191l.107-.043a.948.948 0 01.325-.06l.395-.003.164-.006h.277c.114 0 .225.02.33.055l.098.039h.147l.154.16.066.026h.136l.311.312L79.8 44.867V8.96a2.773 2.773 0 00-2.599-2.756zm-40.48 5.52c3.538 0 6.44 2.902 6.44 6.44s-2.902 6.44-6.44 6.44-6.44-2.902-6.44-6.44 2.902-6.44 6.44-6.44zm0 3.68c-1.515 0-2.76 1.245-2.76 2.76s1.245 2.76 2.76 2.76 2.76-1.245 2.76-2.76-1.245-2.76-2.76-2.76z" fill="#fff" fill-rule="nonzero"/></g></svg><svg viewBox="0 0 103 103" id="images-et-medias-blue" xmlns="http://www.w3.org/2000/svg"><g fill="none" fill-rule="evenodd"><path d="M102.54 56.46c0 25.405-20.083 46-44.856 46-.28-6.38-.28-28.442-.1-47.75.171-18.423 0-36.628.1-44.25 24.773 0 44.856 20.595 44.856 46z" fill="#e9ac30"/><path d="M77.04.68c4.473 0 8.147 3.594 8.276 8.037l.004.243v49.68c0 4.473-3.594 8.147-8.037 8.276l-.243.004h-.92v.92c0 4.392-3.464 8.013-7.795 8.266l-.242.01-.243.004h-.92v.92c0 4.392-3.464 8.013-7.795 8.266l-.242.01-.243.004H8.96c-4.473 0-8.147-3.594-8.276-8.037L.68 77.04V27.36c0-4.473 3.594-8.147 8.037-8.276l.243-.004h.92v-.92c0-4.392 3.464-8.013 7.795-8.266l.242-.01.243-.004h.92v-.92c0-4.392 3.464-8.013 7.795-8.266l.242-.01.243-.004zM9.88 24.6h-.92a2.773 2.773 0 00-2.755 2.599l-.005.161v49.68a2.773 2.773 0 002.599 2.755l.161.005h49.68a2.773 2.773 0 002.755-2.599l.005-.161v-.92H18.16c-4.473 0-8.147-3.594-8.276-8.037l-.004-.243zm9.2-9.2h-.92a2.773 2.773 0 00-2.755 2.599l-.005.161v49.68a2.773 2.773 0 002.599 2.755l.161.005h49.68a2.773 2.773 0 002.755-2.599l.005-.161v-.92H27.36c-4.473 0-8.147-3.594-8.276-8.037l-.004-.243zm36.433 18.573L34.73 61.4h42.31a2.773 2.773 0 002.755-2.599l.005-.161v-6.894zM77.04 6.2H27.36a2.773 2.773 0 00-2.755 2.598l-.005.162v49.68a2.773 2.773 0 002.599 2.755l.161.005h.465l25.203-33.024.08-.093.457-.456h.067l.103-.064.067-.033.04-.038.035-.037a.997.997 0 01.275-.191l.107-.043a.948.948 0 01.325-.06l.395-.003.164-.006h.277c.114 0 .225.02.33.055l.098.039h.147l.154.16.066.026h.136l.311.312L79.8 44.867V8.96a2.773 2.773 0 00-2.599-2.756zm-40.48 5.52c3.538 0 6.44 2.902 6.44 6.44s-2.902 6.44-6.44 6.44-6.44-2.902-6.44-6.44 2.902-6.44 6.44-6.44zm0 3.68c-1.515 0-2.76 1.245-2.76 2.76s1.245 2.76 2.76 2.76 2.76-1.245 2.76-2.76-1.245-2.76-2.76-2.76z" fill="#254356" fill-rule="nonzero"/></g></svg><svg viewBox="0 0 105 96" id="internationalisation" xmlns="http://www.w3.org/2000/svg"><g fill="none" fill-rule="evenodd"><path d="M46.46 95.54c25.405 0 46-20.083 46-44.856-6.38-.28-28.442-.28-47.75-.1-18.423.171-36.628 0-44.25.1 0 24.773 20.595 44.856 46 44.856z" fill="#e9ac30"/><g fill="#fff"><path d="M60.46 88.16a43.698 43.698 0 01-36.927-67.024 43.704 43.704 0 0173.881 0 43.705 43.705 0 01-8.426 56.427A43.694 43.694 0 0160.46 88.16zm0-81.937a38.246 38.246 0 00-24.943 9.268 38.267 38.267 0 00-12.854 23.301 38.245 38.245 0 005.46 26.043 38.24 38.24 0 0057.284 8.576 38.253 38.253 0 0013.29-28.951A38.255 38.255 0 0087.5 17.42 38.251 38.251 0 0060.46 6.222z"/><path d="M60.46 88.16c-7.101 0-13.11-7.73-16.387-21.194A92.598 92.598 0 0141.34 44.46a92.667 92.667 0 012.731-22.533C47.35 8.49 53.36.76 60.46.76s13.11 7.73 16.387 21.195A92.598 92.598 0 0179.58 44.46a92.667 92.667 0 01-2.731 22.533C73.57 80.43 67.56 88.16 60.46 88.16zm0-81.937c-4.124 0-8.63 6.855-11.198 17.043a87.239 87.239 0 00-2.458 21.194 87.023 87.023 0 002.458 21.167c2.568 10.216 7.074 17.07 11.198 17.07s8.63-6.855 11.198-17.042a87.239 87.239 0 002.458-21.195 87.023 87.023 0 00-2.458-21.167C69.09 13.077 64.584 6.223 60.46 6.223z"/><path d="M19.491 47.191h81.939V41.73H19.49zm5.463-21.85h71.012V19.88H24.954zm0 43.7h71.012V63.58H24.954z"/></g></g></svg><svg viewBox="0 0 105 96" id="internationalisation-blue" xmlns="http://www.w3.org/2000/svg"><filter id="ava"><feColorMatrix in="SourceGraphic" values="0 0 0 0 0.145098 0 0 0 0 0.262745 0 0 0 0 0.337255 0 0 0 1.000000 0"/></filter><g fill="none" fill-rule="evenodd"><path d="M46.46 95.54c25.405 0 46-20.083 46-44.856-6.38-.28-28.442-.28-47.75-.1-18.423.171-36.628 0-44.25.1 0 24.773 20.595 44.856 46 44.856z" fill="#e9ac30"/><g filter="url(#ava)" transform="translate(14 -2)"><g fill="#000"><path d="M46.46 90.16A43.698 43.698 0 019.533 23.136a43.704 43.704 0 0173.881 0 43.705 43.705 0 01-8.426 56.427A43.694 43.694 0 0146.46 90.16zm0-81.937a38.246 38.246 0 00-24.943 9.268A38.267 38.267 0 008.663 40.792a38.245 38.245 0 005.46 26.043 38.24 38.24 0 0057.284 8.576 38.253 38.253 0 0013.29-28.951A38.255 38.255 0 0073.5 19.42 38.251 38.251 0 0046.46 8.222z"/><path d="M46.46 90.16c-7.101 0-13.11-7.73-16.387-21.194A92.598 92.598 0 0127.34 46.46a92.667 92.667 0 012.731-22.533C33.35 10.49 39.36 2.76 46.46 2.76s13.11 7.73 16.387 21.195A92.598 92.598 0 0165.58 46.46a92.667 92.667 0 01-2.731 22.533C59.57 82.43 53.56 90.16 46.46 90.16zm0-81.937c-4.124 0-8.63 6.855-11.198 17.043a87.239 87.239 0 00-2.458 21.194 87.023 87.023 0 002.458 21.167c2.568 10.216 7.074 17.07 11.198 17.07s8.63-6.855 11.198-17.042a87.239 87.239 0 002.458-21.195 87.023 87.023 0 00-2.458-21.167C55.09 15.077 50.584 8.223 46.46 8.223z"/><path d="M5.491 49.191H87.43V43.73H5.49zm5.463-21.85h71.012V21.88H10.954zm0 43.7h71.012V65.58H10.954z"/></g></g></g></svg><svg viewBox="0 0 101 97" id="liens" xmlns="http://www.w3.org/2000/svg"><g fill="none" fill-rule="evenodd"><path d="M46.46 96.54c25.405 0 46-20.083 46-44.856-6.38-.28-28.442-.28-47.75-.1-18.423.171-36.628 0-44.25.1 0 24.773 20.595 44.856 46 44.856z" fill="#e9ac30"/><path d="M68.159 32.841a3.848 3.848 0 01-5.442 5.442c-4.5-4.5-11.819-4.5-16.318 0L30.083 54.599c-4.5 4.5-4.5 11.819 0 16.318 4.5 4.5 11.819 4.5 16.318 0L57.28 60.04a3.846 3.846 0 015.441 5.436l-10.88 10.88c-7.499 7.498-19.696 7.498-27.195 0-7.5-7.5-7.5-19.697 0-27.196l16.318-16.319c7.5-7.498 19.697-7.498 27.196 0zM95.355 5.638c7.5 7.505 7.5 19.702 0 27.201L79.037 49.16c-7.5 7.498-19.697 7.498-27.196 0a3.848 3.848 0 015.442-5.442c4.5 4.5 11.819 4.5 16.318 0L89.921 27.4c4.499-4.5 4.499-11.82 0-16.32-4.5-4.499-11.82-4.499-16.32 0L62.724 21.958a3.848 3.848 0 01-5.441-5.441L68.16 5.638c7.499-7.498 19.696-7.498 27.195 0z" fill="#fff"/></g></svg><svg viewBox="0 0 96 113" id="navigation" xmlns="http://www.w3.org/2000/svg"><g fill="none" fill-rule="evenodd"><path d="M93.54 66.46c0 25.405-20.083 46-44.856 46-.28-6.38-.28-28.442-.1-47.75.171-18.423 0-36.628.1-44.25 24.773 0 44.856 20.595 44.856 46z" fill="#e9ac30"/><path d="M48 .5C74.199.5 95.5 21.801 95.5 48S74.199 95.5 48 95.5.5 74.199.5 48 21.801.5 48 .5zm0 6.602C25.399 7.102 7.102 25.399 7.102 48c0 22.601 18.296 40.898 40.898 40.898 22.601 0 40.898-18.297 40.898-40.898C88.898 25.399 70.601 7.102 48 7.102zm15.602 14.796c3-1.297 6.5-.598 8.8 1.602 2.4 2.3 3 5.8 1.7 8.8L63.301 57.101c-1.203 2.801-3.402 4.903-6.102 6.102L32.4 74.004c-1 .5-2.098.7-3.2.7-2 0-4.101-.802-5.601-2.302-2.399-2.3-3-5.8-1.7-8.8L32.7 38.8c1.204-2.801 3.403-4.903 6.102-6.102l24.801-10.801zm3.2 5.898c-.204 0-.403 0-.602.102l-24.801 10.8c-1.2.5-2.2 1.5-2.7 2.7L27.9 66.2c-.301.8 0 1.3.3 1.602s.801.699 1.602.3l24.8-10.8c1.2-.5 2.2-1.5 2.7-2.7l10.801-24.8c.297-.802-.102-1.302-.3-1.606-.2-.2-.5-.399-1-.399zM48 41.5a6.5 6.5 0 110 13 6.5 6.5 0 010-13z" fill="#fff"/></g></svg><svg viewBox="0 0 96 113" id="navigation-blue" xmlns="http://www.w3.org/2000/svg"><g fill="none" fill-rule="evenodd"><path d="M93.54 66.46c0 25.405-20.083 46-44.856 46-.28-6.38-.28-28.442-.1-47.75.171-18.423 0-36.628.1-44.25 24.773 0 44.856 20.595 44.856 46z" fill="#e9ac30"/><path d="M48 .5C74.199.5 95.5 21.801 95.5 48S74.199 95.5 48 95.5.5 74.199.5 48 21.801.5 48 .5zm0 6.602C25.399 7.102 7.102 25.399 7.102 48c0 22.601 18.296 40.898 40.898 40.898 22.601 0 40.898-18.297 40.898-40.898C88.898 25.399 70.601 7.102 48 7.102zm15.602 14.796c3-1.297 6.5-.598 8.8 1.602 2.4 2.3 3 5.8 1.7 8.8L63.301 57.101c-1.203 2.801-3.402 4.903-6.102 6.102L32.4 74.004c-1 .5-2.098.7-3.2.7-2 0-4.101-.802-5.601-2.302-2.399-2.3-3-5.8-1.7-8.8L32.7 38.8c1.204-2.801 3.403-4.903 6.102-6.102l24.801-10.801zm3.2 5.898c-.204 0-.403 0-.602.102l-24.801 10.8c-1.2.5-2.2 1.5-2.7 2.7L27.9 66.2c-.301.8 0 1.3.3 1.602s.801.699 1.602.3l24.8-10.8c1.2-.5 2.2-1.5 2.7-2.7l10.801-24.8c.297-.802-.102-1.302-.3-1.606-.2-.2-.5-.399-1-.399zM48 41.5a6.5 6.5 0 110 13 6.5 6.5 0 010-13z" fill="#254356"/></g></svg><svg viewBox="0 0 106 93" id="newsletter" xmlns="http://www.w3.org/2000/svg"><g fill="none" fill-rule="evenodd"><path d="M105.54 46.46c0 25.405-20.083 46-44.856 46-.28-6.38-.28-28.442-.1-47.75.171-18.423 0-36.628.1-44.25 24.773 0 44.856 20.595 44.856 46z" fill="#e9ac30"/><path d="M10.057 18.24C4.983 18.24.8 22.423.8 27.497V68.64c0 5.075 4.183 9.257 9.257 9.257h67.886c5.074 0 9.257-4.182 9.257-9.257V27.497c0-5.074-4.183-9.257-9.257-9.257zm.675 6.171H77.3L45.897 52.44c-1.197 1.069-2.527 1.069-3.729 0zm-3.76 4.918L28.12 48.197 6.971 68.512zm74.057 0v39.15L59.943 48.164zM55.314 52.312l20.154 19.414H12.532L32.75 52.344l5.303 4.725c3.371 3.005 8.586 3.009 11.957 0z" fill="#fff"/></g></svg><svg viewBox="0 0 106 93" id="newsletter-blue" xmlns="http://www.w3.org/2000/svg"><g fill="none" fill-rule="evenodd"><path d="M105.54 46.46c0 25.405-20.083 46-44.856 46-.28-6.38-.28-28.442-.1-47.75.171-18.423 0-36.628.1-44.25 24.773 0 44.856 20.595 44.856 46z" fill="#e9ac30"/><path d="M10.057 18.24C4.983 18.24.8 22.423.8 27.497V68.64c0 5.075 4.183 9.257 9.257 9.257h67.886c5.074 0 9.257-4.182 9.257-9.257V27.497c0-5.074-4.183-9.257-9.257-9.257zm.675 6.171H77.3L45.897 52.44c-1.197 1.069-2.527 1.069-3.729 0zm-3.76 4.918L28.12 48.197 6.971 68.512zm74.057 0v39.15L59.943 48.164zM55.314 52.312l20.154 19.414H12.532L32.75 52.344l5.303 4.725c3.371 3.005 8.586 3.009 11.957 0z" fill="#254356"/></g></svg><svg viewBox="0 0 108 103" id="presentation" xmlns="http://www.w3.org/2000/svg"><g fill="none" fill-rule="evenodd"><path d="M.46 56.46c0 25.405 20.083 46 44.856 46 .28-6.38.28-28.442.1-47.75-.171-18.423 0-36.628-.1-44.25C20.543 10.46.46 31.055.46 56.46z" fill="#e9ac30"/><path d="M104.633 0C106.496 0 108 1.5 108 3.347v78.091a3.355 3.355 0 01-3.367 3.347H16.367A3.355 3.355 0 0113 81.438V3.347A3.355 3.355 0 0116.367 0zm-3.366 6.694H19.733V78.09h81.534zM53.61 36.774c1.834 0 3.315 1.498 3.315 3.343v30.088c0 1.846-1.48 3.343-3.315 3.343H28.573c-1.834 0-3.315-1.497-3.315-3.343V40.117c0-1.845 1.48-3.343 3.315-3.343zm37.795 0c1.835 0 3.315 1.498 3.315 3.343v30.088c0 1.846-1.48 3.343-3.315 3.343H66.37c-1.835 0-3.315-1.497-3.315-3.343V40.117c0-1.845 1.48-3.343 3.315-3.343zm-41.11 6.686H31.887v23.402h18.406zm37.795 0H69.684v23.402H88.09zm3.256-31.202c1.867 0 3.374 1.449 3.374 3.235v12.939c0 1.786-1.507 3.235-3.374 3.235H27.61c-1.867 0-3.374-1.45-3.374-3.235v-12.94c0-1.785 1.507-3.234 3.374-3.234zm-3.375 6.47H30.986v6.47h56.985z" fill="#fff"/></g></svg><svg viewBox="0 0 108 103" id="presentation-blue" xmlns="http://www.w3.org/2000/svg"><g fill="none" fill-rule="evenodd"><path d="M.46 56.46c0 25.405 20.083 46 44.856 46 .28-6.38.28-28.442.1-47.75-.171-18.423 0-36.628-.1-44.25C20.543 10.46.46 31.055.46 56.46z" fill="#e9ac30"/><path d="M104.633 0C106.496 0 108 1.5 108 3.347v78.091a3.355 3.355 0 01-3.367 3.347H16.367A3.355 3.355 0 0113 81.438V3.347A3.355 3.355 0 0116.367 0zm-3.366 6.694H19.733V78.09h81.534zM53.61 36.774c1.834 0 3.315 1.498 3.315 3.343v30.088c0 1.846-1.48 3.343-3.315 3.343H28.573c-1.834 0-3.315-1.497-3.315-3.343V40.117c0-1.845 1.48-3.343 3.315-3.343zm37.795 0c1.835 0 3.315 1.498 3.315 3.343v30.088c0 1.846-1.48 3.343-3.315 3.343H66.37c-1.835 0-3.315-1.497-3.315-3.343V40.117c0-1.845 1.48-3.343 3.315-3.343zm-41.11 6.686H31.887v23.402h18.406zm37.795 0H69.684v23.402H88.09zm3.256-31.202c1.867 0 3.374 1.449 3.374 3.235v12.939c0 1.786-1.507 3.235-3.374 3.235H27.61c-1.867 0-3.374-1.45-3.374-3.235v-12.94c0-1.785 1.507-3.234 3.374-3.234zm-3.375 6.47H30.986v6.47h56.985z" fill="#254356"/></g></svg><svg viewBox="0 0 85 107" id="securite" xmlns="http://www.w3.org/2000/svg"><g fill="none" fill-rule="evenodd"><path d="M.46 60.46c0 25.405 20.083 46 44.856 46 .28-6.38.28-28.442.1-47.75-.171-18.423 0-36.628-.1-44.25C20.543 14.46.46 35.055.46 60.46z" fill="#e9ac30"/><path d="M50 0C37.309 0 27 10.309 27 23v9h-5c-3.824 0-7 3.176-7 7v38c0 3.824 3.176 7 7 7h56c3.824 0 7-3.176 7-7V39c0-3.824-3.176-7-7-7h-5v-9C73 10.309 62.691 0 50 0zm0 6c9.469 0 17 7.531 17 17v9H33v-9c0-9.469 7.531-17 17-17zM22 38h56c.605 0 1 .395 1 1v38c0 .605-.395 1-1 1H22c-.605 0-1-.395-1-1V39c0-.605.395-1 1-1zm28 6c-4.934 0-9 4.066-9 9 0 2.047.836 3.824 2 5.344V65c0 3.824 3.176 7 7 7s7-3.176 7-7v-6.656c1.164-1.52 2-3.297 2-5.344 0-4.934-4.066-9-9-9zm0 6c1.691 0 3 1.309 3 3a2.91 2.91 0 01-1 2.219 3.048 3.048 0 00-1 2.25V65c0 .605-.395 1-1 1s-1-.395-1-1v-7.531a3.06 3.06 0 00-1-2.25A2.91 2.91 0 0147 53c0-1.691 1.309-3 3-3z" fill="#fff"/></g></svg><svg viewBox="0 0 85 107" id="securite-blue" xmlns="http://www.w3.org/2000/svg"><g fill="none" fill-rule="evenodd"><path d="M.46 60.46c0 25.405 20.083 46 44.856 46 .28-6.38.28-28.442.1-47.75-.171-18.423 0-36.628-.1-44.25C20.543 14.46.46 35.055.46 60.46z" fill="#e9ac30"/><path d="M50 0C37.309 0 27 10.309 27 23v9h-5c-3.824 0-7 3.176-7 7v38c0 3.824 3.176 7 7 7h56c3.824 0 7-3.176 7-7V39c0-3.824-3.176-7-7-7h-5v-9C73 10.309 62.691 0 50 0zm0 6c9.469 0 17 7.531 17 17v9H33v-9c0-9.469 7.531-17 17-17zM22 38h56c.605 0 1 .395 1 1v38c0 .605-.395 1-1 1H22c-.605 0-1-.395-1-1V39c0-.605.395-1 1-1zm28 6c-4.934 0-9 4.066-9 9 0 2.047.836 3.824 2 5.344V65c0 3.824 3.176 7 7 7s7-3.176 7-7v-6.656c1.164-1.52 2-3.297 2-5.344 0-4.934-4.066-9-9-9zm0 6c1.691 0 3 1.309 3 3a2.91 2.91 0 01-1 2.219 3.048 3.048 0 00-1 2.25V65c0 .605-.395 1-1 1s-1-.395-1-1v-7.531a3.06 3.06 0 00-1-2.25A2.91 2.91 0 0147 53c0-1.691 1.309-3 3-3z" fill="#254356"/></g></svg><svg viewBox="0 0 93 94" id="serveur-et-performances" xmlns="http://www.w3.org/2000/svg"><g fill="none" fill-rule="evenodd"><path d="M46.46 93.54c25.405 0 46-20.083 46-44.856-6.38-.28-28.442-.28-47.75-.1-18.423.171-36.628 0-44.25.1 0 24.773 20.595 44.856 46 44.856z" fill="#e9ac30"/><path d="M50.658 41.192l.082.207 5.167 14.025c2.384 6.47-2.647 13.329-9.81 13.069-6.684-.249-11.158-6.724-9.094-12.822l.088-.247L42.258 41.4c1.398-3.794 6.854-3.865 8.4-.207zm25.9-27.934c13.038 13.83 14.558 34.836 3.85 50.34a4.425 4.425 0 01-6.095 1.153l-.184-.13-6.078-4.549a4.379 4.379 0 01-1.008-5.956C77.952 37.918 65.7 16.202 46.185 16.851c-18.719.615-29.702 21.72-19.23 37.267a4.377 4.377 0 01-.832 5.815l-.177.14-6.078 4.547c-1.997 1.495-4.855 1.04-6.276-1.017-10.832-15.677-9.175-37.02 4.359-50.879l.414-.417c16.11-16.032 42.437-15.761 58.193.951zM46.499 46.626L42.555 57.33c-.963 2.614.941 5.414 3.764 5.52 2.96.109 5.035-2.672 4.185-5.342l-.061-.178zm-29.146-3.031h-5.054l.005.065a34.211 34.211 0 004.886 15.057l.349.56 4.038-3.021-.048-.078A29.326 29.326 0 0117.36 43.69zm64.344 0h-5.053l-.007.095a29.295 29.295 0 01-4.169 12.488l-.049.077 4.038 3.022.035-.054a34.2 34.2 0 005.147-14.97zM44.154 6.283l-.505.045c-16.54 1.564-29.703 14.643-31.297 31.103l-.045.499h5.054l.042-.399C18.929 23.844 29.9 12.847 43.746 11.348l.408-.041zm5.687 0v5.024l.405.04c13.791 1.485 24.83 12.407 26.35 26.18l.04.403h5.053l-.045-.501C80.038 20.93 66.84 7.878 50.345 6.327z" fill="#fff"/></g></svg><svg viewBox="0 0 93 94" id="serveur-et-performances-blue" xmlns="http://www.w3.org/2000/svg"><g fill="none" fill-rule="evenodd"><path d="M46.46 93.54c25.405 0 46-20.083 46-44.856-6.38-.28-28.442-.28-47.75-.1-18.423.171-36.628 0-44.25.1 0 24.773 20.595 44.856 46 44.856z" fill="#e9ac30"/><path d="M50.658 41.192l.082.207 5.167 14.025c2.384 6.47-2.647 13.329-9.81 13.069-6.684-.249-11.158-6.724-9.094-12.822l.088-.247L42.258 41.4c1.398-3.794 6.854-3.865 8.4-.207zm25.9-27.934c13.038 13.83 14.558 34.836 3.85 50.34a4.425 4.425 0 01-6.095 1.153l-.184-.13-6.078-4.549a4.379 4.379 0 01-1.008-5.956C77.952 37.918 65.7 16.202 46.185 16.851c-18.719.615-29.702 21.72-19.23 37.267a4.377 4.377 0 01-.832 5.815l-.177.14-6.078 4.547c-1.997 1.495-4.855 1.04-6.276-1.017-10.832-15.677-9.175-37.02 4.359-50.879l.414-.417c16.11-16.032 42.437-15.761 58.193.951zM46.499 46.626L42.555 57.33c-.963 2.614.941 5.414 3.764 5.52 2.96.109 5.035-2.672 4.185-5.342l-.061-.178zm-29.146-3.031h-5.054l.005.065a34.211 34.211 0 004.886 15.057l.349.56 4.038-3.021-.048-.078A29.326 29.326 0 0117.36 43.69zm64.344 0h-5.053l-.007.095a29.295 29.295 0 01-4.169 12.488l-.049.077 4.038 3.022.035-.054a34.2 34.2 0 005.147-14.97zM44.154 6.283l-.505.045c-16.54 1.564-29.703 14.643-31.297 31.103l-.045.499h5.054l.042-.399C18.929 23.844 29.9 12.847 43.746 11.348l.408-.041zm5.687 0v5.024l.405.04c13.791 1.485 24.83 12.407 26.35 26.18l.04.403h5.053l-.045-.501C80.038 20.93 66.84 7.878 50.345 6.327z" fill="#254356"/></g></svg><svg viewBox="0 0 98 79" id="structure-et-code" xmlns="http://www.w3.org/2000/svg"><g fill="none" fill-rule="evenodd"><path d="M46.46 33.46c25.405 0 46 20.083 46 44.856-6.38.28-28.442.28-47.75.1-18.423-.171-36.628 0-44.25-.1 0-24.773 20.595-44.856 46-44.856z" fill="#e9ac30"/><path d="M95 .6a2.798 2.798 0 012.776 2.442l.019.186.005.172v59.4a2.8 2.8 0 01-.82 1.981 2.802 2.802 0 01-1.622.795l-.186.019L95 65.6H23a2.802 2.802 0 01-1.98-.819 2.802 2.802 0 01-.796-1.622l-.019-.187-.005-.172V3.4A2.801 2.801 0 0122.695.617l.152-.013L23 .6zm-2.8 20H25.8V60h66.4zm-29.002 5.72c1.227.386 1.967 1.612 1.76 2.906l-.028.15-.045.17-6.857 22.056c-.388 1.252-1.81 2.078-3.179 1.708-1.268-.347-2.024-1.614-1.804-2.93l.029-.147.044-.163 6.856-22.055a2.564 2.564 0 013.224-1.696zm11.622 6.133l.113.108 5.336 5.465c.937.96.973 2.485.109 3.489l-.108.118-5.332 5.47c-.923.946-2.711.913-3.602 0a2.592 2.592 0 01-.108-3.49l.108-.117 3.569-3.66-3.578-3.667a2.599 2.599 0 01-.203-3.366l.099-.123.108-.119a2.51 2.51 0 013.49-.108zm-28.264 0l.113.108.105.116c.774.902.832 2.218.125 3.218l-.101.135-.129.144-3.575 3.663 3.57 3.659c.9.922.968 2.364.207 3.366l-.099.123-.108.118c-.795.815-2.313.929-3.333.225l-.125-.092-.144-.134-5.331-5.469c-.875-.897-.97-2.296-.223-3.34l.098-.128.125-.14 5.336-5.464a2.51 2.51 0 013.49-.108zM92.2 6.199H25.8V15h66.4zm-16 4.401c0 3.735-5.6 3.735-5.6 0s5.6-3.733 5.6 0zm7.2 0c0 3.735-5.6 3.735-5.6 0s5.6-3.733 5.6 0zm7.2 0c0 3.735-5.6 3.735-5.6 0s5.6-3.733 5.6 0z" fill="#fff" fill-rule="nonzero"/></g></svg><svg viewBox="0 0 98 79" id="structure-et-code-blue" xmlns="http://www.w3.org/2000/svg"><g fill="none" fill-rule="evenodd"><path d="M46.46 33.46c25.405 0 46 20.083 46 44.856-6.38.28-28.442.28-47.75.1-18.423-.171-36.628 0-44.25-.1 0-24.773 20.595-44.856 46-44.856z" fill="#e9ac30"/><path d="M95 .6a2.798 2.798 0 012.776 2.442l.019.186.005.172v59.4a2.8 2.8 0 01-.82 1.981 2.802 2.802 0 01-1.622.795l-.186.019L95 65.6H23a2.802 2.802 0 01-1.98-.819 2.802 2.802 0 01-.796-1.622l-.019-.187-.005-.172V3.4A2.801 2.801 0 0122.695.617l.152-.013L23 .6zm-2.8 20H25.8V60h66.4zm-29.002 5.72c1.227.386 1.967 1.612 1.76 2.906l-.028.15-.045.17-6.857 22.056c-.388 1.252-1.81 2.078-3.179 1.708-1.268-.347-2.024-1.614-1.804-2.93l.029-.147.044-.163 6.856-22.055a2.564 2.564 0 013.224-1.696zm11.622 6.133l.113.108 5.336 5.465c.937.96.973 2.485.109 3.489l-.108.118-5.332 5.47c-.923.946-2.711.913-3.602 0a2.592 2.592 0 01-.108-3.49l.108-.117 3.569-3.66-3.578-3.667a2.599 2.599 0 01-.203-3.366l.099-.123.108-.119a2.51 2.51 0 013.49-.108zm-28.264 0l.113.108.105.116c.774.902.832 2.218.125 3.218l-.101.135-.129.144-3.575 3.663 3.57 3.659c.9.922.968 2.364.207 3.366l-.099.123-.108.118c-.795.815-2.313.929-3.333.225l-.125-.092-.144-.134-5.331-5.469c-.875-.897-.97-2.296-.223-3.34l.098-.128.125-.14 5.336-5.464a2.51 2.51 0 013.49-.108zM92.2 6.199H25.8V15h66.4zm-16 4.401c0 3.735-5.6 3.735-5.6 0s5.6-3.733 5.6 0zm7.2 0c0 3.735-5.6 3.735-5.6 0s5.6-3.733 5.6 0zm7.2 0c0 3.735-5.6 3.735-5.6 0s5.6-3.733 5.6 0z" fill="#254356" fill-rule="nonzero"/></g></svg><svg viewBox="0 0 200 140" id="student" xmlns="http://www.w3.org/2000/svg"><g fill="none" fill-rule="evenodd"><circle cx="188.589" cy="17.74" fill="#1c9b9c" r="7.192"/><circle cx="151.192" cy="129.932" fill="#7db952" r="10.068"/><circle cx="11.192" cy="50.342" fill="#d25148" r="7.192"/><path d="M140.588 44.65c0 22.774-18.004 41.237-40.212 41.237-.25-5.72-.25-25.498-.09-42.806.154-16.515 0-32.836.09-39.669 22.208 0 40.212 18.463 40.212 41.237z" fill="#e9ac30"/><path d="M131.711 61.51h-4.505v-2.226c0-1.227 1.01-2.226 2.253-2.226s2.252.999 2.252 2.226zM97.923 34.704l-23.337-6.59 23.337-6.591 23.336 6.59zm15.718 6.482c-.13.643-.516 1.185-1.056 1.448-4.435 2.153-9.505 3.292-14.662 3.292-5.158 0-10.228-1.139-14.663-3.293-.734-.357-1.105-1.183-1.105-1.934V34.88c16.347 4.617 15.317 4.364 15.768 4.364.45 0-.583.254 15.768-4.364 0 6.391.018 5.977-.05 6.304zM97.923 61.511c-7.642 0-14.031-6.174-15.466-14.337 4.757 2.098 10.074 3.204 15.466 3.204 5.39 0 10.708-1.106 15.465-3.204-1.435 8.164-7.824 14.337-15.465 14.337zm10.192 8.942c9.891.573 17.904 8.29 18.97 18.073h-26.91v-6.302zM91.512 68.03l1.394-2.757a18.55 18.55 0 0010.033 0l1.395 2.757-6.411 9.505zm4.158 20.495H68.76c1.067-9.783 9.08-17.5 18.97-18.073l7.94 11.771zm36.041-35.538c0-25.061.071-23.465-.165-24.041.506-1.236-.19-2.615-1.468-2.976l-31.536-8.906a2.276 2.276 0 00-1.238 0L65.768 25.97a2.23 2.23 0 00-1.634 2.141 2.23 2.23 0 001.634 2.141l11.881 3.356v10.089c0 8.65 4.516 16.165 11.094 19.849L87.5 66.004c-6.08.343-11.76 2.904-16.123 7.296-4.67 4.702-7.243 10.9-7.243 17.453 0 1.23 1.009 2.227 2.253 2.227h63.072c1.244 0 2.252-.997 2.252-2.227 0-6.553-2.572-12.75-7.242-17.453-4.364-4.392-10.044-6.95-16.123-7.295l-1.243-2.458c6.578-3.684 11.093-11.198 11.093-19.849v-10.09l9.01-2.544v21.924c-2.622.919-4.505 3.394-4.505 6.296v4.453c0 1.23 1.009 2.227 2.253 2.227h9.01c1.244 0 2.252-.997 2.252-2.227v-4.453c0-2.902-1.883-5.377-4.505-6.296z" fill="#fff"/></g></svg><svg viewBox="0 0 200 140" id="team" xmlns="http://www.w3.org/2000/svg"><g fill="none" fill-rule="evenodd"><path d="M99.4 53.4c22.091 0 40 17.463 40 39.005-5.548.243-24.733.243-41.521.087-16.02-.149-31.851 0-38.479-.087 0-21.542 17.909-39.005 40-39.005z" fill="#e9ac30"/><path d="M125.68 70.832c.932.977.572 3.067-.77 4.473l-8.21 8.603a3.453 3.453 0 01-5.04 0l-2.26-2.368a25.114 25.114 0 007.907-5.598L123.932 69zm-32.51 7.763l-.054-.012a2.238 2.238 0 00-.129-.028l-.096-.014c-.035-.004-.07-.009-.107-.011a1.784 1.784 0 00-.412.007 2.006 2.006 0 00-.314.06 2.223 2.223 0 00-.1.03c-.031.01-.061.022-.092.033a2.324 2.324 0 00-.375.186c-.03.019-.061.038-.092.06a2.085 2.085 0 00-.264.218l-.039.035-4.711 4.772a3.579 3.579 0 01-5.102 0l-8.31-8.417c-.706-.715-1.121-1.63-1.169-2.577-.043-.863.231-1.64.774-2.19l2.968-3.007c.046 0 .091.003.137.003 2.128 0 4.128-.84 5.633-2.363 2.303-2.333 2.897-5.75 1.784-8.644a7.889 7.889 0 003.975-2.187 8.07 8.07 0 002.248-4.557 7.894 7.894 0 001.989.254 7.865 7.865 0 005.633-2.363 8.07 8.07 0 002.334-5.706 8.23 8.23 0 00-.25-2.012 7.864 7.864 0 004.496-2.281c3.106-3.146 3.106-8.265.001-11.412l-1.845-1.868 1.696-1.718a3.639 3.639 0 015.186 0 3.714 3.714 0 011.074 2.626c0 .992-.382 1.925-1.074 2.626-.42.425-.63.983-.63 1.54s.21 1.115.63 1.54c.84.85 2.2.85 3.04 0a3.638 3.638 0 015.186 0 3.753 3.753 0 010 5.253c-.42.425-.63.983-.63 1.54s.21 1.114.63 1.54c.84.85 2.2.85 3.04 0a3.623 3.623 0 012.593-1.089c.98 0 1.9.387 2.592 1.088a3.714 3.714 0 011.075 2.627c0 .979-.372 1.9-1.047 2.597l-.029.03-3.083 3.123a2.198 2.198 0 00-.174 2.88l.11.143a2.131 2.131 0 002.795.531 3.627 3.627 0 014.467.567 3.753 3.753 0 010 5.253l-4.935 4.997-.028.03-10.592 10.729c-5.314 5.383-13.132 7.505-20.402 5.538zm-24.3-21.441a1.075 1.075 0 00-.024-.027c-1.396-1.491-1.395-3.916.003-5.406.678-.723 1.578-1.121 2.537-1.121.958 0 1.86.398 2.537 1.121l4.828 5.148c1.399 1.492 1.399 3.919 0 5.41-.677.723-1.578 1.121-2.536 1.121-.176 0-.35-.014-.522-.04l-.038-.007a3.485 3.485 0 01-1.962-1.057l-.017-.018zm3.98-18.243a3.462 3.462 0 012.534-1.111c.957 0 1.858.395 2.535 1.112l6.44 6.818c1.39 1.48 1.388 3.882-.007 5.36-.677.715-1.577 1.11-2.535 1.11s-1.857-.395-2.534-1.112l-.025-.026L72.87 44.3l-.02-.022a3.884 3.884 0 01-1.05-2.683c0-1.014.373-1.967 1.05-2.684zm8.043-2.684a3.775 3.775 0 01.01-5.323A3.75 3.75 0 0183.57 29.8a3.744 3.744 0 012.665 1.104l.008.007 6.759 6.76.013.013 1.68 1.679A3.746 3.746 0 0195.8 42.03a3.743 3.743 0 01-1.105 2.666 3.746 3.746 0 01-2.666 1.104 3.744 3.744 0 01-2.693-1.13l-1.658-1.659-.007-.007-6.768-6.767zm7.955-14.116c.677-.716 1.578-1.111 2.535-1.111s1.858.395 2.535 1.111l6.434 6.81c1.397 1.48 1.397 3.888 0 5.368a3.465 3.465 0 01-2.535 1.111 3.466 3.466 0 01-2.535-1.111l-.002-.003-6.43-6.806-.016-.017c-1.383-1.481-1.379-3.878.014-5.352zm38.887 42.857l4.926-4.977c3.118-3.15 3.119-8.275 0-11.426a7.975 7.975 0 00-3.333-2.02 8.077 8.077 0 001.547-4.78 8.067 8.067 0 00-2.343-5.713 7.905 7.905 0 00-5.925-2.362 8.107 8.107 0 00-2.334-5.981 7.937 7.937 0 00-5.92-2.358 8.068 8.068 0 00-2.338-5.984 7.952 7.952 0 00-11.312 0L99 21.087l-1.702-1.72A7.906 7.906 0 0091.64 17c-2.136 0-4.144.84-5.655 2.366a8.1 8.1 0 00-2.332 5.983c-.09-.003-.18-.006-.27-.006a7.91 7.91 0 00-5.657 2.366 8.104 8.104 0 00-2.332 5.983c-.09-.003-.181-.007-.272-.007a7.904 7.904 0 00-5.654 2.366 8.067 8.067 0 00-2.344 5.714 8.07 8.07 0 001.548 4.778 7.945 7.945 0 00-3.335 2.022c-3.11 3.143-3.118 8.253-.02 11.404l.023.024 4.932 4.982a8.145 8.145 0 00.965.838l-1.458 1.474c-1.42 1.434-2.142 3.386-2.035 5.499.102 2.028.966 3.96 2.432 5.44l8.343 8.43C80.068 88.217 82.1 89 84.134 89s4.066-.782 5.613-2.345l3.878-3.918c1.77.384 3.572.578 5.376.578a25.37 25.37 0 005.374-.577l3.877 3.917A7.875 7.875 0 00113.865 89a7.875 7.875 0 005.614-2.345l8.344-8.429c3.095-3.126 3.447-7.858.783-10.548l-1.777-1.796.877-.886.03-.028z" fill="#fff"/><circle cx="188.589" cy="17.74" fill="#1c9b9c" r="7.192"/><circle cx="151.192" cy="129.932" fill="#7db952" r="10.068"/><circle cx="11.192" cy="50.342" fill="#d25148" r="7.192"/></g></svg><svg viewBox="0 0 226 131" id="training" xmlns="http://www.w3.org/2000/svg"><g fill="none" fill-rule="evenodd"><path d="M97.5 120.5c27.614 0 50-21.829 50-48.756-6.935-.304-30.916-.304-51.902-.11-20.025.187-39.813 0-48.098.11 0 26.927 22.386 48.756 50 48.756z" fill="#e9ac30"/><path d="M110.637 87.4a9.284 9.284 0 017.278 3.51 9.284 9.284 0 017.278-3.51h11.737c2.91 0 5.513 1.34 7.212 3.427a9.279 9.279 0 017.212-3.427h11.735c5.109 0 9.267 4.116 9.271 9.174v5.503a2.05 2.05 0 01-2.055 2.043h-52.323l-.063-.007c-.022 0-.04.007-.062.007H91.695a2.05 2.05 0 01-2.055-2.043v-5.503c0-5.058 4.158-9.174 9.267-9.174zm.003 4.087H98.906c-2.844 0-5.156 2.28-5.156 5.086v3.46h22.047v-3.46c0-2.806-2.313-5.086-5.157-5.086zm26.286 0H125.19c-2.844 0-5.156 2.28-5.156 5.086v3.46h22.05v-3.46c0-2.806-2.312-5.086-5.157-5.086zm26.158 0h-11.733c-2.845 0-5.157 2.28-5.157 5.086v3.46h22.05l-.003-3.46c0-2.806-2.312-5.086-5.157-5.086zm-31.64-23.447c3.971 0 7.354 2.525 8.659 6.047h.01c.023.06.034.122.055.18.074.206.136.411.19.62.03.107.059.217.085.327.054.242.095.488.131.734.011.066.03.128.037.194.003.033.003.066.007.096l.022.235c.022.246.036.491.036.737 0 .022.004.044.004.07 0 5.093-4.147 9.24-9.24 9.24-4.783 0-8.728-3.655-9.193-8.323a9.595 9.595 0 01-.047-.92c0-.294.015-.584.044-.87l.01-.121c.008-.048.008-.096.015-.144.015-.099.04-.19.055-.29.033-.201.066-.4.11-.598a8.26 8.26 0 01.11-.425c.047-.173.098-.345.157-.514.025-.077.043-.154.069-.228h.015c1.304-3.522 4.687-6.047 8.659-6.047zm41.5-50.16A2.05 2.05 0 01175 19.928l-.007 7.414a2.052 2.052 0 01-2.057 2.049h-.294v46.28c0 1.13-.922 2.049-2.057 2.049h-3.598c-.633 4.467-4.477 7.92-9.113 7.92a9.199 9.199 0 01-6.502-2.702 9.222 9.222 0 01-2.696-6.52c0-.282.018-.564.04-.838l.018-.176c.004-.037.004-.077.011-.117.011-.08.037-.165.047-.246.03-.223.07-.439.117-.655.029-.128.062-.256.098-.38.051-.195.102-.381.167-.565.026-.07.044-.139.066-.205h.01a9.264 9.264 0 015.131-5.341v-2.76h-45.584v2.548a9.238 9.238 0 015.712 5.554h.011c.025.065.044.139.066.205.061.183.116.37.167.563.033.125.069.253.098.381.047.216.087.432.117.655.01.081.036.165.047.246.004.044.004.084.01.124.008.051.012.11.019.169.022.274.04.556.04.838 0 5.081-4.126 9.218-9.198 9.218-4.77 0-8.7-3.65-9.159-8.3a9.085 9.085 0 01.517-4.06c1.157-3.188 4.017-5.553 7.474-5.992v-8.428c0-2.354 1.903-4.276 4.242-4.276h11.243v-2.05c0-4.068 3.293-7.37 7.347-7.37h8.652c4.05 0 7.346 3.306 7.346 7.37v2.05h10.661c2.34 0 4.243 1.922 4.243 4.276v8.376a9.208 9.208 0 018.18 6.392h1.9V29.39H93.46v44.232h2.182c.136 0 .264.011.393.04a9.01 9.01 0 00-.521 4.057h-4.107a2.052 2.052 0 01-2.056-2.048V29.39h-.294A2.05 2.05 0 0187 27.343v-7.415a2.05 2.05 0 012.057-2.048zM131.44 72.154c-2.835 0-5.144 2.3-5.148 5.13 0 2.829 2.31 5.13 5.148 5.13 2.839 0 5.148-2.301 5.148-5.13 0-2.83-2.31-5.13-5.148-5.13zm26.43-.85c-2.823 0-5.123 2.295-5.123 5.114a5.127 5.127 0 0010.254 0c0-2.82-2.3-5.115-5.13-5.115zm-51.988 0c-2.831 0-5.13 2.295-5.13 5.114a5.127 5.127 0 0010.254 0 5.127 5.127 0 00-5.124-5.115zm14.558 2.016a14.065 14.065 0 00-.388 2.2 13.134 13.134 0 00-.017 2.2h-4.47a13.134 13.134 0 00-.017-2.2 14.065 14.065 0 00-.388-2.2zm26.4 0a13.796 13.796 0 00-.396 2.2 12.83 12.83 0 00-.055 1.214c0 .334.01.66.038.986h-4.454c.028-.326.038-.652.038-.986 0-.409-.017-.817-.055-1.214a13.797 13.797 0 00-.396-2.2zm7.366-14.64H108.96a.174.174 0 00-.168.176v3.35h45.581v-3.35a.171.171 0 00-.167-.176zm-18.004-9.42h-8.653a3.272 3.272 0 00-3.27 3.27v2.05h15.194v-2.05a3.272 3.272 0 00-3.27-3.27zm-4.762-18.18c3.64 0 6.6 2.964 6.6 6.602s-2.963 6.598-6.6 6.598c-3.637 0-6.6-2.96-6.6-6.598a6.607 6.607 0 016.6-6.602zm0 3.91a2.702 2.702 0 00-2.705 2.691c0 1.48 1.213 2.688 2.705 2.688s2.705-1.204 2.705-2.688a2.702 2.702 0 00-2.705-2.691zm39.446-13.013H91.114v3.317h79.772z" fill="#fff"/><circle cx="10" cy="35" fill="#d25148" r="10"/><circle cx="210.5" cy="12.5" fill="#1c9b9c" r="5.5"/><circle cx="218.5" cy="117.5" fill="#7db952" r="7.5"/></g></svg></svg>