<svg viewBox="0 0 105 96" xmlns="http://www.w3.org/2000/svg"><g fill="none" fill-rule="evenodd"><path d="M46.46 95.54c25.405 0 46-20.083 46-44.856-6.38-.28-28.442-.28-47.75-.1-18.423.171-36.628 0-44.25.1 0 24.773 20.595 44.856 46 44.856z" fill="#e9ac30"/><g fill="#fff"><path d="M60.46 88.16a43.698 43.698 0 0 1-36.927-67.024 43.704 43.704 0 0 1 73.881 0 43.705 43.705 0 0 1-8.426 56.427A43.694 43.694 0 0 1 60.46 88.16zm0-81.937a38.246 38.246 0 0 0-24.943 9.268 38.267 38.267 0 0 0-12.854 23.301 38.245 38.245 0 0 0 5.46 26.043 38.24 38.24 0 0 0 57.284 8.576 38.253 38.253 0 0 0 13.29-28.951A38.255 38.255 0 0 0 87.5 17.42 38.251 38.251 0 0 0 60.46 6.222z"/><path d="M60.46 88.16c-7.101 0-13.11-7.73-16.387-21.194A92.598 92.598 0 0 1 41.34 44.46a92.667 92.667 0 0 1 2.731-22.533C47.35 8.49 53.36.76 60.46.76s13.11 7.73 16.387 21.195A92.598 92.598 0 0 1 79.58 44.46a92.667 92.667 0 0 1-2.731 22.533C73.57 80.43 67.56 88.16 60.46 88.16zm0-81.937c-4.124 0-8.63 6.855-11.198 17.043a87.239 87.239 0 0 0-2.458 21.194 87.023 87.023 0 0 0 2.458 21.167c2.568 10.216 7.074 17.07 11.198 17.07s8.63-6.855 11.198-17.042a87.239 87.239 0 0 0 2.458-21.195 87.023 87.023 0 0 0-2.458-21.167C69.09 13.077 64.584 6.223 60.46 6.223z"/><path d="M19.491 47.191h81.939V41.73H19.49zm5.463-21.85h71.012V19.88H24.954zm0 43.7h71.012V63.58H24.954z"/></g></g></svg>