<svg viewBox="0 0 103 103" xmlns="http://www.w3.org/2000/svg"><g fill="none" fill-rule="evenodd"><path d="M102.54 56.46c0 25.405-20.083 46-44.856 46-.28-6.38-.28-28.442-.1-47.75.171-18.423 0-36.628.1-44.25 24.773 0 44.856 20.595 44.856 46z" fill="#e9ac30"/><path d="M77.04.68c4.473 0 8.147 3.594 8.276 8.037l.004.243v49.68c0 4.473-3.594 8.147-8.037 8.276l-.243.004h-.92v.92c0 4.392-3.464 8.013-7.795 8.266l-.242.01-.243.004h-.92v.92c0 4.392-3.464 8.013-7.795 8.266l-.242.01-.243.004H8.96c-4.473 0-8.147-3.594-8.276-8.037L.68 77.04V27.36c0-4.473 3.594-8.147 8.037-8.276l.243-.004h.92v-.92c0-4.392 3.464-8.013 7.795-8.266l.242-.01.243-.004h.92v-.92c0-4.392 3.464-8.013 7.795-8.266l.242-.01.243-.004zM9.88 24.6h-.92a2.773 2.773 0 0 0-2.755 2.599l-.005.161v49.68a2.773 2.773 0 0 0 2.599 2.755l.161.005h49.68a2.773 2.773 0 0 0 2.755-2.599l.005-.161v-.92H18.16c-4.473 0-8.147-3.594-8.276-8.037l-.004-.243zm9.2-9.2h-.92a2.773 2.773 0 0 0-2.755 2.599l-.005.161v49.68a2.773 2.773 0 0 0 2.599 2.755l.161.005h49.68a2.773 2.773 0 0 0 2.755-2.599l.005-.161v-.92H27.36c-4.473 0-8.147-3.594-8.276-8.037l-.004-.243zm36.433 18.573L34.73 61.4h42.31a2.773 2.773 0 0 0 2.755-2.599l.005-.161v-6.894zM77.04 6.2H27.36a2.773 2.773 0 0 0-2.755 2.598l-.005.162v49.68a2.773 2.773 0 0 0 2.599 2.755l.161.005h.465l25.203-33.024.08-.093.457-.456h.067l.103-.064.067-.033.04-.038.035-.037a.997.997 0 0 1 .275-.191l.107-.043a.948.948 0 0 1 .325-.06l.395-.003.164-.006h.277c.114 0 .225.02.33.055l.098.039h.147l.154.16.066.026h.136l.311.312L79.8 44.867V8.96a2.773 2.773 0 0 0-2.599-2.756zm-40.48 5.52c3.538 0 6.44 2.902 6.44 6.44s-2.902 6.44-6.44 6.44-6.44-2.902-6.44-6.44 2.902-6.44 6.44-6.44zm0 3.68c-1.515 0-2.76 1.245-2.76 2.76s1.245 2.76 2.76 2.76 2.76-1.245 2.76-2.76-1.245-2.76-2.76-2.76z" fill="#fff" fill-rule="nonzero"/></g></svg>