<svg viewBox="0 0 101 80" xmlns="http://www.w3.org/2000/svg"><g fill="none" fill-rule="evenodd"><path d="M54.46 79.54c25.405 0 46-20.083 46-44.856-6.38-.28-28.442-.28-47.75-.1-18.423.171-36.628 0-44.25.1 0 24.773 20.595 44.856 46 44.856z" fill="#e9ac30"/><path d="M59.211 2.837C60.537.282 63.597-.706 66.08.53l10.756 5.354c1.241.66 2.153 1.647 2.566 2.967.414 1.315.333 2.718-.333 3.95l-17.54 34.843c-.333.66-.747 1.152-1.325 1.648l-11.5 9.556A5.156 5.156 0 0 1 45.48 60c-.828 0-1.574-.248-2.318-.576a5.104 5.104 0 0 1-2.812-4.778l.828-14.99c0-.657.168-1.316.498-1.976zm-29.32 46.818c1.774 0 3.21 1.39 3.212 3.104 0 1.716-1.434 3.103-3.209 3.103H3.21C1.435 55.862 0 54.475 0 52.76s1.435-3.104 3.21-3.104zm17.243-5.138-.33 7.742 5.957-4.942zm12.828-28.993L48.543 38.176l8.604 4.282 11.335-22.651zM31.974 34.138c1.769 0 3.198 1.387 3.198 3.103s-1.43 3.104-3.198 3.104H3.198C1.43 40.345 0 38.957 0 37.24s1.43-3.103 3.198-3.103zm6.247-15.517c1.746 0 3.158 1.387 3.158 3.103 0 1.713-1.412 3.1-3.158 3.104H3.158C1.412 24.828 0 23.44 0 21.724c0-1.716 1.412-3.103 3.158-3.103zM64.344 6.708 62.69 9.922l8.604 4.28 1.655-3.212zm-18.84-3.605a3.107 3.107 0 0 1 3.117 3.104 3.107 3.107 0 0 1-3.117 3.103H3.116C1.393 9.31 0 7.84 0 6.207a3.107 3.107 0 0 1 3.116-3.104z" fill="#fff"/></g></svg>