<svg viewBox="0 0 108 103" xmlns="http://www.w3.org/2000/svg"><g fill="none" fill-rule="evenodd"><path d="M.46 56.46c0 25.405 20.083 46 44.856 46 .28-6.38.28-28.442.1-47.75-.171-18.423 0-36.628-.1-44.25C20.543 10.46.46 31.055.46 56.46z" fill="#e9ac30"/><path d="M104.633 0C106.496 0 108 1.5 108 3.347v78.091a3.355 3.355 0 0 1-3.367 3.347H16.367A3.355 3.355 0 0 1 13 81.438V3.347A3.355 3.355 0 0 1 16.367 0zm-3.366 6.694H19.733V78.09h81.534zM53.61 36.774c1.834 0 3.315 1.498 3.315 3.343v30.088c0 1.846-1.48 3.343-3.315 3.343H28.573c-1.834 0-3.315-1.497-3.315-3.343V40.117c0-1.845 1.48-3.343 3.315-3.343zm37.795 0c1.835 0 3.315 1.498 3.315 3.343v30.088c0 1.846-1.48 3.343-3.315 3.343H66.37c-1.835 0-3.315-1.497-3.315-3.343V40.117c0-1.845 1.48-3.343 3.315-3.343zm-41.11 6.686H31.887v23.402h18.406zm37.795 0H69.684v23.402H88.09zm3.256-31.202c1.867 0 3.374 1.449 3.374 3.235v12.939c0 1.786-1.507 3.235-3.374 3.235H27.61c-1.867 0-3.374-1.45-3.374-3.235v-12.94c0-1.785 1.507-3.234 3.374-3.234zm-3.375 6.47H30.986v6.47h56.985z" fill="#fff"/></g></svg>