<svg viewBox="0 0 106 93" xmlns="http://www.w3.org/2000/svg"><g fill="none" fill-rule="evenodd"><path d="M105.54 46.46c0 25.405-20.083 46-44.856 46-.28-6.38-.28-28.442-.1-47.75.171-18.423 0-36.628.1-44.25 24.773 0 44.856 20.595 44.856 46z" fill="#e9ac30"/><path d="M10.057 18.24C4.983 18.24.8 22.423.8 27.497V68.64c0 5.075 4.183 9.257 9.257 9.257h67.886c5.074 0 9.257-4.182 9.257-9.257V27.497c0-5.074-4.183-9.257-9.257-9.257zm.675 6.171H77.3L45.897 52.44c-1.197 1.069-2.527 1.069-3.729 0zm-3.76 4.918L28.12 48.197 6.971 68.512zm74.057 0v39.15L59.943 48.164zM55.314 52.312l20.154 19.414H12.532L32.75 52.344l5.303 4.725c3.371 3.005 8.586 3.009 11.957 0z" fill="#fff"/></g></svg>