<svg viewBox="0 0 93 94" xmlns="http://www.w3.org/2000/svg"><g fill="none" fill-rule="evenodd"><path d="M46.46 93.54c25.405 0 46-20.083 46-44.856-6.38-.28-28.442-.28-47.75-.1-18.423.171-36.628 0-44.25.1 0 24.773 20.595 44.856 46 44.856z" fill="#e9ac30"/><path d="m50.658 41.192.082.207 5.167 14.025c2.384 6.47-2.647 13.329-9.81 13.069-6.684-.249-11.158-6.724-9.094-12.822l.088-.247L42.258 41.4c1.398-3.794 6.854-3.865 8.4-.207zm25.9-27.934c13.038 13.83 14.558 34.836 3.85 50.34a4.425 4.425 0 0 1-6.095 1.153l-.184-.13-6.078-4.549a4.379 4.379 0 0 1-1.008-5.956C77.952 37.918 65.7 16.202 46.185 16.851c-18.719.615-29.702 21.72-19.23 37.267a4.377 4.377 0 0 1-.832 5.815l-.177.14-6.078 4.547c-1.997 1.495-4.855 1.04-6.276-1.017-10.832-15.677-9.175-37.02 4.359-50.879l.414-.417c16.11-16.032 42.437-15.761 58.193.951zM46.499 46.626 42.555 57.33c-.963 2.614.941 5.414 3.764 5.52 2.96.109 5.035-2.672 4.185-5.342l-.061-.178zm-29.146-3.031h-5.054l.005.065a34.211 34.211 0 0 0 4.886 15.057l.349.56 4.038-3.021-.048-.078A29.326 29.326 0 0 1 17.36 43.69zm64.344 0h-5.053l-.007.095a29.295 29.295 0 0 1-4.169 12.488l-.049.077 4.038 3.022.035-.054a34.2 34.2 0 0 0 5.147-14.97zM44.154 6.283l-.505.045c-16.54 1.564-29.703 14.643-31.297 31.103l-.045.499h5.054l.042-.399C18.929 23.844 29.9 12.847 43.746 11.348l.408-.041zm5.687 0v5.024l.405.04c13.791 1.485 24.83 12.407 26.35 26.18l.04.403h5.053l-.045-.501C80.038 20.93 66.84 7.878 50.345 6.327z" fill="#fff"/></g></svg>