<svg viewBox="0 0 85 107" xmlns="http://www.w3.org/2000/svg"><g fill="none" fill-rule="evenodd"><path d="M.46 60.46c0 25.405 20.083 46 44.856 46 .28-6.38.28-28.442.1-47.75-.171-18.423 0-36.628-.1-44.25C20.543 14.46.46 35.055.46 60.46z" fill="#e9ac30"/><path d="M50 0C37.309 0 27 10.309 27 23v9h-5c-3.824 0-7 3.176-7 7v38c0 3.824 3.176 7 7 7h56c3.824 0 7-3.176 7-7V39c0-3.824-3.176-7-7-7h-5v-9C73 10.309 62.691 0 50 0zm0 6c9.469 0 17 7.531 17 17v9H33v-9c0-9.469 7.531-17 17-17zM22 38h56c.605 0 1 .395 1 1v38c0 .605-.395 1-1 1H22c-.605 0-1-.395-1-1V39c0-.605.395-1 1-1zm28 6c-4.934 0-9 4.066-9 9 0 2.047.836 3.824 2 5.344V65c0 3.824 3.176 7 7 7s7-3.176 7-7v-6.656c1.164-1.52 2-3.297 2-5.344 0-4.934-4.066-9-9-9zm0 6c1.691 0 3 1.309 3 3a2.91 2.91 0 0 1-1 2.219 3.048 3.048 0 0 0-1 2.25V65c0 .605-.395 1-1 1s-1-.395-1-1v-7.531a3.06 3.06 0 0 0-1-2.25A2.91 2.91 0 0 1 47 53c0-1.691 1.309-3 3-3z" fill="#fff"/></g></svg>