<svg viewBox="0 0 101 111" xmlns="http://www.w3.org/2000/svg"><g fill="none" fill-rule="evenodd"><path d="M46.46 110.54c25.405 0 46-20.083 46-44.856-6.38-.28-28.442-.28-47.75-.1-18.423.171-36.628 0-44.25.1 0 24.773 20.595 44.856 46 44.856z" fill="#e9ac30"/><path d="M53.771 36.709c12.268 0 22.247 10.268 22.247 22.89a2.416 2.416 0 0 1-4.83 0c0-9.959-7.812-18.06-17.417-18.06s-17.417 8.101-17.417 18.06c0 10.199 11.39 21.81 11.505 21.926a2.413 2.413 0 0 1-1.716 4.115 2.411 2.411 0 0 1-1.716-.715c-.528-.531-12.903-13.163-12.903-25.325 0-12.623 9.979-22.891 22.247-22.891zm2.09-9.38c16.435 1.098 29.312 15.723 29.312 33.295v.55c0 6.543-5.191 11.866-11.57 11.866s-11.566-5.323-11.566-11.866V59.6c0-2.376-.908-4.585-2.557-6.228-1.545-1.539-3.57-2.382-5.706-2.382h-.045c-2.72.012-4.553 1.426-5.609 2.608-1.884 2.102-2.817 5.161-2.499 8.175 1.066 10.04 12.603 19.04 15.778 19.04a2.413 2.413 0 1 1 0 4.827c-5.809 0-19.275-11.051-20.579-23.358-.46-4.35.924-8.8 3.7-11.904 2.415-2.699 5.677-4.196 9.184-4.215h.067c3.42 0 6.653 1.343 9.113 3.787 2.57 2.553 3.983 5.982 3.983 9.653v1.575c0 3.88 3.02 7.035 6.736 7.035s6.74-3.155 6.74-7.035v-.551c0-15.037-10.894-27.547-24.8-28.474-7.25-.493-14.207 2.012-19.575 7.029-5.57 5.21-8.765 12.654-8.765 20.421 0 6.389 2.164 12.613 6.092 17.527a2.415 2.415 0 0 1-3.774 3.013c-4.607-5.767-7.148-13.063-7.148-20.543 0-9.1 3.754-17.83 10.294-23.947 6.353-5.944 14.593-8.904 23.194-8.324zM53.58 55.61a2.416 2.416 0 0 1 2.415 2.415c0 9.557 8.034 18.061 14.365 18.061a2.416 2.416 0 0 1 0 4.83c-8.643 0-19.195-10.561-19.195-22.89a2.416 2.416 0 0 1 2.415-2.416zm.19-37.8c13.312 0 25.799 6.76 33.401 18.081a2.413 2.413 0 0 1-2.006 3.758 2.406 2.406 0 0 1-2.006-1.07c-6.704-9.981-17.69-15.942-29.389-15.942s-22.685 5.96-29.389 15.943a2.416 2.416 0 1 1-4.012-2.692C27.973 24.569 40.46 17.81 53.771 17.81zm0-9.45c10.658 0 20.933 4.015 28.935 11.309a2.417 2.417 0 0 1 .158 3.413 2.412 2.412 0 0 1-1.787.786 2.39 2.39 0 0 1-1.626-.632C72.344 16.758 63.225 13.19 53.77 13.19s-18.573 3.568-25.68 10.05a2.42 2.42 0 0 1-3.413-.158 2.417 2.417 0 0 1 .158-3.413C32.838 12.375 43.113 8.36 53.771 8.36zM98.126 1C99.16 1 100 1.84 100 2.874v16.492a1.874 1.874 0 1 1-3.748 0L96.25 4.748H81.634a1.874 1.874 0 1 1 0-3.748zM9.874 1C8.84 1 8 1.84 8 2.874l.001.024L8 19.366a1.874 1.874 0 1 0 3.748 0l.001-14.618h14.617a1.874 1.874 0 0 0 0-3.748zm0 92A1.874 1.874 0 0 1 8 91.126l.001-.024L8 74.634a1.874 1.874 0 1 1 3.748 0l.001 14.618h14.617a1.874 1.874 0 1 1 0 3.748zm88.252 0c1.035 0 1.874-.84 1.874-1.874V74.634a1.874 1.874 0 1 0-3.748 0l-.001 14.618H81.634a1.874 1.874 0 1 0 0 3.748z" fill="#fff" stroke="#fff"/></g></svg>