<svg viewBox="0 0 103 103" xmlns="http://www.w3.org/2000/svg"><g fill="none" fill-rule="evenodd"><path d="M46.46 102.54c25.405 0 46-20.083 46-44.856-6.38-.28-28.442-.28-47.75-.1-18.423.171-36.628 0-44.25.1 0 24.773 20.595 44.856 46 44.856z" fill="#e9ac30"/><g fill="#fff" fill-rule="nonzero"><path d="M102.205 23.885 79.109.79A2.695 2.695 0 0 0 77.203 0H38.229c-5.466 0-9.913 4.447-9.913 9.913v72.174c0 5.466 4.447 9.913 9.913 9.913H93.08c5.466 0 9.913-4.447 9.913-9.913V25.791c0-.715-.284-1.4-.79-1.906zM79.898 9.202l13.894 13.894H84.42a4.527 4.527 0 0 1-4.522-4.522zM93.081 86.61H38.23a4.527 4.527 0 0 1-4.522-4.522V9.913a4.527 4.527 0 0 1 4.522-4.522h36.278v13.183c0 5.465 4.447 9.912 9.913 9.912h13.183v53.601a4.527 4.527 0 0 1-4.522 4.522z"/><path d="M54.107 40.418H42.559a2.695 2.695 0 0 0-2.695 2.695v11.548a2.695 2.695 0 0 0 2.695 2.695h11.548a2.695 2.695 0 0 0 2.695-2.695V43.113a2.695 2.695 0 0 0-2.695-2.695zm-2.695 11.548h-6.158v-6.158h6.158zm3.071-34.486H42.935a2.695 2.695 0 0 0-2.695 2.695v11.548a2.695 2.695 0 0 0 2.695 2.696h11.548a2.695 2.695 0 0 0 2.696-2.696V20.175a2.695 2.695 0 0 0-2.696-2.695zm-2.695 11.548h-6.157V22.87h6.157zm2.319 34.486H42.559a2.695 2.695 0 0 0-2.695 2.695v11.548a2.695 2.695 0 0 0 2.695 2.695h11.548a2.695 2.695 0 0 0 2.695-2.695V66.209a2.695 2.695 0 0 0-2.695-2.695zM51.412 75.06h-6.158v-6.157h6.158zM62.96 43.113a2.695 2.695 0 0 0 2.695 2.695h11.548a2.695 2.695 0 0 0 0-5.39H65.655a2.695 2.695 0 0 0-2.695 2.695zm25.79 8.853H65.656a2.695 2.695 0 0 0 0 5.39h23.096a2.695 2.695 0 0 0 0-5.39zM65.655 68.904h11.548a2.695 2.695 0 0 0 0-5.39H65.655a2.695 2.695 0 0 0 0 5.39zm23.095 6.157H65.656a2.696 2.696 0 0 0 0 5.391h23.096a2.695 2.695 0 0 0 0-5.39z"/></g></g></svg>