<svg viewBox="0 0 110 94" xmlns="http://www.w3.org/2000/svg"><g fill="none" fill-rule="evenodd"><path d="M46.46 93.54c25.405 0 46-20.083 46-44.856-6.38-.28-28.442-.28-47.75-.1-18.423.171-36.628 0-44.25.1 0 24.773 20.595 44.856 46 44.856z" fill="#e9ac30"/><path d="M71.625.945a3 3 0 0 1 3 3v8.5h31.625a2.874 2.874 0 0 1 2.87 2.706l.005.169v57.5a2.874 2.874 0 0 1-2.706 2.87l-.169.005h-80.5a2.874 2.874 0 0 1-2.87-2.706l-.005-.169v-57.5a2.874 2.874 0 0 1 2.706-2.87l.169-.005h31.625v-8.5a3 3 0 0 1 3-3zm-14.25 17.25h-28.75v51.75h74.75v-51.75h-28.75v1.915a2.874 2.874 0 0 1-2.875 2.875h-11.5a2.874 2.874 0 0 1-2.875-2.875zM48.06 28.2c5.833 0 10.58 4.737 10.58 10.559 0 2.7-1.028 5.242-2.803 7.172l-.226.237.106.046c5.415 2.461 9.091 7.732 9.346 13.696l.01.332.004.333a2.466 2.466 0 0 1-2.336 2.58l-.152.005-.156-.005c-1.34-.08-2.414-1.186-2.414-2.538 0-5.956-4.92-10.81-11-10.81s-11 4.854-11 10.81c0 1.404-1.157 2.543-2.57 2.543s-2.569-1.14-2.569-2.543c0-5.678 3.068-10.81 7.868-13.627l.29-.166.093-.051-.194-.17a10.538 10.538 0 0 1-3.438-7.169l-.014-.321-.005-.312c0-5.83 4.754-10.601 10.58-10.601zm46.491 26.776a2.695 2.695 0 0 1 .17 5.385l-.17.005H71.455a2.695 2.695 0 0 1-.17-5.385l.17-.005zM83.003 43.428a2.695 2.695 0 0 1 .17 5.385l-.17.006H71.455a2.695 2.695 0 0 1-.17-5.386l.17-.005zM48.06 33.336c-3.017 0-5.48 2.445-5.48 5.465 0 3.009 2.453 5.423 5.48 5.423 3.017 0 5.48-2.445 5.48-5.465 0-3.009-2.453-5.423-5.48-5.423zm46.491-1.456a2.695 2.695 0 0 1 .17 5.385l-.17.006H71.455a2.695 2.695 0 0 1-.17-5.386l.17-.005zM68.875 6.695h-5.75v10.54h5.75z" fill="#fff"/></g></svg>