<svg viewBox="0 0 96 113" xmlns="http://www.w3.org/2000/svg"><g fill="none" fill-rule="evenodd"><path d="M93.54 66.46c0 25.405-20.083 46-44.856 46-.28-6.38-.28-28.442-.1-47.75.171-18.423 0-36.628.1-44.25 24.773 0 44.856 20.595 44.856 46z" fill="#e9ac30"/><path d="M48 .5C74.199.5 95.5 21.801 95.5 48S74.199 95.5 48 95.5.5 74.199.5 48 21.801.5 48 .5zm0 6.602C25.399 7.102 7.102 25.399 7.102 48c0 22.601 18.296 40.898 40.898 40.898 22.601 0 40.898-18.297 40.898-40.898C88.898 25.399 70.601 7.102 48 7.102zm15.602 14.796c3-1.297 6.5-.598 8.8 1.602 2.4 2.3 3 5.8 1.7 8.8L63.301 57.101c-1.203 2.801-3.402 4.903-6.102 6.102L32.4 74.004c-1 .5-2.098.7-3.2.7-2 0-4.101-.802-5.601-2.302-2.399-2.3-3-5.8-1.7-8.8L32.7 38.8c1.204-2.801 3.403-4.903 6.102-6.102l24.801-10.801zm3.2 5.898c-.204 0-.403 0-.602.102l-24.801 10.8c-1.2.5-2.2 1.5-2.7 2.7L27.9 66.2c-.301.8 0 1.3.3 1.602s.801.699 1.602.3l24.8-10.8c1.2-.5 2.2-1.5 2.7-2.7l10.801-24.8c.297-.802-.102-1.302-.3-1.606-.2-.2-.5-.399-1-.399zM48 41.5a6.5 6.5 0 1 1 0 13 6.5 6.5 0 0 1 0-13z" fill="#fff"/></g></svg>