<svg viewBox="0 0 95 77" xmlns="http://www.w3.org/2000/svg"><g fill="none" fill-rule="evenodd"><path d="M46.46 24.46c25.405 0 46 20.083 46 44.856-6.38.28-28.442.28-47.75.1-18.423-.171-36.628 0-44.25-.1 0-24.773 20.595-44.856 46-44.856z" fill="#e9ac30"/><path d="M48.416 59.505a8.732 8.732 0 0 1 2.83 14.238 8.732 8.732 0 0 1-14.238-2.83 8.731 8.731 0 0 1 11.408-11.408zm28.374 0a8.732 8.732 0 0 1 2.83 14.238 8.732 8.732 0 0 1-14.238-2.83A8.731 8.731 0 0 1 76.79 59.505zm-31.716 5.883a2.184 2.184 0 0 0-1.543 3.726c.622.623 1.564.81 2.378.473a2.184 2.184 0 0 0 .708-3.56 2.182 2.182 0 0 0-1.543-.639zm28.373 0a2.184 2.184 0 0 0-1.542 3.726 2.183 2.183 0 1 0 1.735-3.717zM92.123.86a3.26 3.26 0 0 1 1.931 1.842 3.262 3.262 0 0 1-.08 2.664L79.9 43.26a3.276 3.276 0 0 1-3.178 2.486H39.617a2.181 2.181 0 0 0-2.182 2.182c0 1.207.976 2.183 2.182 2.183h44.744a3.275 3.275 0 0 1 0 6.548H39.617a8.73 8.73 0 0 1-2.384-17.131L25.333 7.55h-5.36a3.275 3.275 0 0 1 0-6.548h7.64a3.273 3.273 0 0 1 3.065 2.182l13.403 36.014h30.36l9.747-26.192H42.891a3.275 3.275 0 0 1 0-6.548h43.734l1.218-3.274a3.273 3.273 0 0 1 1.62-2.118 3.278 3.278 0 0 1 2.66-.205z" fill="#fff"/></g></svg>