<svg viewBox="0 0 101 97" xmlns="http://www.w3.org/2000/svg"><g fill="none" fill-rule="evenodd"><path d="M46.46 96.54c25.405 0 46-20.083 46-44.856-6.38-.28-28.442-.28-47.75-.1-18.423.171-36.628 0-44.25.1 0 24.773 20.595 44.856 46 44.856z" fill="#e9ac30"/><path d="M68.159 32.841a3.848 3.848 0 0 1-5.442 5.442c-4.5-4.5-11.819-4.5-16.318 0L30.083 54.599c-4.5 4.5-4.5 11.819 0 16.318 4.5 4.5 11.819 4.5 16.318 0L57.28 60.04a3.846 3.846 0 0 1 5.441 5.436l-10.88 10.88c-7.499 7.498-19.696 7.498-27.195 0-7.5-7.5-7.5-19.697 0-27.196l16.318-16.319c7.5-7.498 19.697-7.498 27.196 0zM95.355 5.638c7.5 7.505 7.5 19.702 0 27.201L79.037 49.16c-7.5 7.498-19.697 7.498-27.196 0a3.848 3.848 0 0 1 5.442-5.442c4.5 4.5 11.819 4.5 16.318 0L89.921 27.4c4.499-4.5 4.499-11.82 0-16.32-4.5-4.499-11.82-4.499-16.32 0L62.724 21.958a3.848 3.848 0 0 1-5.441-5.441L68.16 5.638c7.499-7.498 19.696-7.498 27.195 0z" fill="#fff"/></g></svg>