<svg viewBox="0 0 98 79" xmlns="http://www.w3.org/2000/svg"><g fill="none" fill-rule="evenodd"><path d="M46.46 33.46c25.405 0 46 20.083 46 44.856-6.38.28-28.442.28-47.75.1-18.423-.171-36.628 0-44.25-.1 0-24.773 20.595-44.856 46-44.856z" fill="#e9ac30"/><path d="M95 .6a2.798 2.798 0 0 1 2.776 2.442l.019.186.005.172v59.4a2.8 2.8 0 0 1-.82 1.981 2.802 2.802 0 0 1-1.622.795l-.186.019L95 65.6H23a2.802 2.802 0 0 1-1.98-.819 2.802 2.802 0 0 1-.796-1.622l-.019-.187-.005-.172V3.4A2.801 2.801 0 0 1 22.695.617l.152-.013L23 .6zm-2.8 20H25.8V60h66.4zm-29.002 5.72c1.227.386 1.967 1.612 1.76 2.906l-.028.15-.045.17-6.857 22.056c-.388 1.252-1.81 2.078-3.179 1.708-1.268-.347-2.024-1.614-1.804-2.93l.029-.147.044-.163 6.856-22.055a2.564 2.564 0 0 1 3.224-1.696zm11.622 6.133.113.108 5.336 5.465c.937.96.973 2.485.109 3.489l-.108.118-5.332 5.47c-.923.946-2.711.913-3.602 0a2.592 2.592 0 0 1-.108-3.49l.108-.117 3.569-3.66-3.578-3.667a2.599 2.599 0 0 1-.203-3.366l.099-.123.108-.119a2.51 2.51 0 0 1 3.49-.108zm-28.264 0 .113.108.105.116c.774.902.832 2.218.125 3.218l-.101.135-.129.144-3.575 3.663 3.57 3.659c.9.922.968 2.364.207 3.366l-.099.123-.108.118c-.795.815-2.313.929-3.333.225l-.125-.092-.144-.134-5.331-5.469c-.875-.897-.97-2.296-.223-3.34l.098-.128.125-.14 5.336-5.464a2.51 2.51 0 0 1 3.49-.108zM92.2 6.199H25.8V15h66.4zm-16 4.401c0 3.735-5.6 3.735-5.6 0s5.6-3.733 5.6 0zm7.2 0c0 3.735-5.6 3.735-5.6 0s5.6-3.733 5.6 0zm7.2 0c0 3.735-5.6 3.735-5.6 0s5.6-3.733 5.6 0z" fill="#fff" fill-rule="nonzero"/></g></svg>